<?xml version="1.0" encoding="utf-8"?>
<!-- Generator: Adobe Illustrator 22.1.0, SVG Export Plug-In . SVG Version: 6.00 Build 0)  -->
<svg version="1.1" id="Layer_1" xmlns="http://www.w3.org/2000/svg" xmlns:xlink="http://www.w3.org/1999/xlink" x="0px" y="0px"
	 viewBox="0 0 1081 1921" style="enable-background:new 0 0 1081 1921;" xml:space="preserve">
<style type="text/css">
	.st0{fill:none;stroke:#BEB6B3;stroke-miterlimit:10;}
</style>
<g>
	<g>
		<path class="st0" d="M1080.5,480.5c0,0-378-96-540-96s-540,96-540,96"/>
		<path class="st0" d="M1080.5,480.5c0,0-378-192-540-192s-540,192-540,192"/>
		<path class="st0" d="M1080.5,480.5c0,0-378-288-540-288s-540,288-540,288"/>
		<path class="st0" d="M1080.5,480.5c0,0-378-384-540-384s-540,384-540,384"/>
		<path class="st0" d="M540.5,960.5c0,0,432-336,432-480s-432-480-432-480"/>
		<path class="st0" d="M540.5,960.5c0,0,324-336,324-480s-324-480-324-480"/>
		<path class="st0" d="M540.5,960.5c0,0,216-336,216-480s-216-480-216-480"/>
		<path class="st0" d="M540.5,960.5c0,0,108-336,108-480s-108-480-108-480"/>
		<polyline class="st0" points="1080.5,480.5 540.4,480.5 0.5,480.5 		"/>
		<path class="st0" d="M0.5,480.5c0,0,378,96,540,96s540-96,540-96"/>
		<path class="st0" d="M0.5,480.5c0,0,378,192,540,192s540-192,540-192"/>
		<path class="st0" d="M0.5,480.5c0,0,378,288,540,288s540-288,540-288"/>
		<path class="st0" d="M0.5,480.5c0,0,378,384,540,384s540-384,540-384"/>
		<polyline class="st0" points="540.5,960.5 540.5,480.5 540.5,0.5 		"/>
		<path class="st0" d="M540.5,0.5c0,0-432,336-432,480s432,480,432,480"/>
		<path class="st0" d="M540.5,0.5c0,0-324,336-324,480s324,480,324,480"/>
		<path class="st0" d="M540.5,0.5c0,0-216,336-216,480s216,480,216,480"/>
		<path class="st0" d="M540.5,0.5c0,0-108,336-108,480s108,480,108,480"/>
	</g>
	<g>
		<path class="st0" d="M540.5,1920.5c0,0-378-96-540-96"/>
		<path class="st0" d="M540.5,1920.5c0,0-378-192-540-192"/>
		<path class="st0" d="M540.5,1920.5c0,0-378-288-540-288"/>
		<path class="st0" d="M540.5,1920.5c0,0-378-384-540-384"/>
		<path class="st0" d="M432.5,1920.5c0-144-432-480-432-480"/>
		<path class="st0" d="M324.5,1920.5c0-144-324-480-324-480"/>
		<path class="st0" d="M216.5,1920.5c0-144-216-480-216-480"/>
		<path class="st0" d="M108.5,1920.5c0-144-108-480-108-480"/>
	</g>
	<g>
		<path class="st0" d="M540.5,1920.5c0,0,378-96,540-96"/>
		<path class="st0" d="M540.5,1920.5c0,0,378-192,540-192"/>
		<path class="st0" d="M540.5,1920.5c0,0,378-288,540-288"/>
		<path class="st0" d="M540.5,1920.5c0,0,378-384,540-384"/>
		<path class="st0" d="M648.5,1920.5c0-144,432-480,432-480"/>
		<path class="st0" d="M756.5,1920.5c0-144,324-480,324-480"/>
		<path class="st0" d="M864.5,1920.5c0-144,216-480,216-480"/>
		<path class="st0" d="M972.5,1920.5c0-144,108-480,108-480"/>
	</g>
	<g>
		<path class="st0" d="M540.5,0.5c0,0,378,96,540,96"/>
		<path class="st0" d="M540.5,0.5c0,0,378,192,540,192"/>
		<path class="st0" d="M540.5,0.5c0,0,378,288,540,288"/>
		<path class="st0" d="M540.5,0.5c0,0,378,384,540,384"/>
		<path class="st0" d="M648.5,0.5c0,144,432,480,432,480"/>
		<path class="st0" d="M756.5,0.5c0,144,324,480,324,480"/>
		<path class="st0" d="M864.5,0.5c0,144,216,480,216,480"/>
		<path class="st0" d="M972.5,0.5c0,144,108,480,108,480"/>
	</g>
	<g>
		<path class="st0" d="M540.5,0.5c0,0-378,96-540,96"/>
		<path class="st0" d="M540.5,0.5c0,0-378,192-540,192"/>
		<path class="st0" d="M540.5,0.5c0,0-378,288-540,288"/>
		<path class="st0" d="M540.5,0.5c0,0-378,384-540,384"/>
		<path class="st0" d="M432.5,0.5c0,144-432,480-432,480"/>
		<path class="st0" d="M324.5,0.5c0,144-324,480-324,480"/>
		<path class="st0" d="M216.5,0.5c0,144-216,480-216,480"/>
		<path class="st0" d="M108.5,0.5c0,144-108,480-108,480"/>
	</g>
	<g>
		<path class="st0" d="M540.5,960.5c0,0,378,96,540,96"/>
		<path class="st0" d="M540.5,960.5c0,0,378,192,540,192"/>
		<path class="st0" d="M540.5,960.5c0,0,378,288,540,288"/>
		<path class="st0" d="M540.5,960.5c0,0,378,384,540,384"/>
		<path class="st0" d="M1080.5,480.5c0,0-432,336-432,480s432,480,432,480"/>
		<path class="st0" d="M1080.5,480.5c0,0-324,336-324,480s324,480,324,480"/>
		<path class="st0" d="M1080.5,480.5c0,0-216,336-216,480s216,480,216,480"/>
		<path class="st0" d="M1080.5,480.5c0,0-108,336-108,480s108,480,108,480"/>
		<line class="st0" x1="540.5" y1="960.5" x2="1080.5" y2="960.5"/>
		<path class="st0" d="M1080.5,864.5c-162,0-540,96-540,96"/>
		<path class="st0" d="M1080.5,768.5c-162,0-540,192-540,192"/>
		<path class="st0" d="M1080.5,672.5c-162,0-540,288-540,288"/>
		<path class="st0" d="M1080.5,576.5c-162,0-540,384-540,384"/>
	</g>
	<g>
		<path class="st0" d="M540.5,960.5c0,0-378-96-540-96"/>
		<path class="st0" d="M540.5,960.5c0,0-378-192-540-192"/>
		<path class="st0" d="M540.5,960.5c0,0-378-288-540-288"/>
		<path class="st0" d="M540.5,960.5c0,0-378-384-540-384"/>
		<path class="st0" d="M0.5,1440.5c0,0,432-336,432-480s-432-480-432-480"/>
		<path class="st0" d="M0.5,1440.5c0,0,324-336,324-480s-324-480-324-480"/>
		<path class="st0" d="M0.5,1440.5c0,0,216-336,216-480s-216-480-216-480"/>
		<path class="st0" d="M0.5,1440.5c0,0,108-336,108-480s-108-480-108-480"/>
		<line class="st0" x1="540.5" y1="960.5" x2="0.5" y2="960.5"/>
		<path class="st0" d="M0.5,1056.5c162,0,540-96,540-96"/>
		<path class="st0" d="M0.5,1152.5c162,0,540-192,540-192"/>
		<path class="st0" d="M0.5,1248.5c162,0,540-288,540-288"/>
		<path class="st0" d="M0.5,1344.5c162,0,540-384,540-384"/>
	</g>
	<g>
		<path class="st0" d="M1080.5,1440.5c0,0-378-96-540-96s-540,96-540,96"/>
		<path class="st0" d="M1080.5,1440.5c0,0-378-192-540-192s-540,192-540,192"/>
		<path class="st0" d="M1080.5,1440.5c0,0-378-288-540-288s-540,288-540,288"/>
		<path class="st0" d="M1080.5,1440.5c0,0-378-384-540-384s-540,384-540,384"/>
		<path class="st0" d="M540.5,1920.5c0,0,432-336,432-480s-432-480-432-480"/>
		<path class="st0" d="M540.5,1920.5c0,0,324-336,324-480s-324-480-324-480"/>
		<path class="st0" d="M540.5,1920.5c0,0,216-336,216-480s-216-480-216-480"/>
		<path class="st0" d="M540.5,1920.5c0,0,108-336,108-480s-108-480-108-480"/>
		<polyline class="st0" points="1080.5,1440.5 540.4,1440.5 0.5,1440.5 		"/>
		<path class="st0" d="M0.5,1440.5c0,0,378,96,540,96s540-96,540-96"/>
		<path class="st0" d="M0.5,1440.5c0,0,378,192,540,192s540-192,540-192"/>
		<path class="st0" d="M0.5,1440.5c0,0,378,288,540,288s540-288,540-288"/>
		<path class="st0" d="M0.5,1440.5c0,0,378,384,540,384s540-384,540-384"/>
		<polyline class="st0" points="540.5,1920.5 540.5,1440.5 540.5,960.5 		"/>
		<path class="st0" d="M540.5,960.5c0,0-432,336-432,480s432,480,432,480"/>
		<path class="st0" d="M540.5,960.5c0,0-324,336-324,480s324,480,324,480"/>
		<path class="st0" d="M540.5,960.5c0,0-216,336-216,480s216,480,216,480"/>
		<path class="st0" d="M540.5,960.5c0,0-108,336-108,480s108,480,108,480"/>
	</g>
</g>
</svg>
