<?xml version="1.0" encoding="utf-8"?>
<!-- Generator: Adobe Illustrator 22.1.0, SVG Export Plug-In . SVG Version: 6.00 Build 0)  -->
<svg version="1.1" id="Layer_1" xmlns="http://www.w3.org/2000/svg" xmlns:xlink="http://www.w3.org/1999/xlink" x="0px" y="0px"
	 viewBox="0 0 587.4 76.3" style="enable-background:new 0 0 587.4 76.3;" xml:space="preserve">
<style type="text/css">
	.st0{fill:#F0EAE7;}
</style>
<g>
	<path class="st0" d="M64,0.9v5.2H34.7V75h-5.2V6.2H0V0.9H64z"/>
	<path class="st0" d="M75.4,75V0.9h48v5.2H80.5v29.2h33.4v5.2H80.5v29.1h42.9V75H75.4z"/>
	<path class="st0" d="M198.8,0.9v5.2h-29.3V75h-5.2V6.2h-29.4V0.9H198.8z"/>
	<path class="st0" d="M254,75l-30.8-37.4h9.1c5.6,0,10.2-0.7,13.7-2.2c2.6-1.2,4.8-3.1,6.7-5.5c1.9-2.5,2.8-5.2,2.8-8.2
		c0-2.7-0.8-5.2-2.4-7.6c-1.6-2.4-3.9-4.3-6.8-5.9c-3-1.5-6.4-2.3-10.3-2.3h-20.7v69h-5.1v-74h25.9c3.5,0,6.8,0.6,9.8,1.7
		s5.7,2.7,8,4.7c2.2,2,3.9,4.2,5.1,6.7s1.8,5.1,1.8,7.8c0,4.2-1.3,7.9-3.8,11.2s-5.5,5.7-8.9,7.1c-2.4,1.1-4.7,1.7-6.9,2
		s-4.6,0.4-7.1,0.4L260.8,75H254z"/>
	<path class="st0" d="M308.2,75.8c-6.8,0-13-1.7-18.8-5.1s-10.3-8-13.7-13.8c-3.3-5.8-5-12.1-5-19s1.7-13.2,5-19s7.9-10.4,13.7-13.8
		c5.8-3.4,12-5.1,18.8-5.1s13,1.7,18.8,5.1s10.3,8,13.7,13.8c3.3,5.8,5,12.1,5,19s-1.7,13.2-5,19s-7.9,10.4-13.7,13.8
		C321.3,74.1,315,75.8,308.2,75.8z M308.2,5.4c-5.9,0-11.2,1.5-16.2,4.4c-4.9,2.9-8.9,6.9-11.8,11.9s-4.4,10.4-4.4,16.4
		s1.5,11.4,4.4,16.4s6.9,8.9,11.8,11.9c4.9,2.9,10.3,4.4,16.2,4.4c5.9,0,11.2-1.5,16.2-4.4c4.9-2.9,8.9-6.9,11.7-11.9
		c2.9-5,4.3-10.4,4.3-16.4s-1.4-11.4-4.3-16.4s-6.8-8.9-11.7-11.9S314.1,5.4,308.2,5.4z"/>
	<path class="st0" d="M364.5,14.8V75h-5.1V0l51.3,61.3V0.9h5.1v75.4L364.5,14.8z"/>
	<path class="st0" d="M434.7,75V0.9h5.1V75H434.7z"/>
	<path class="st0" d="M466.2,56.2L457.4,75h-5.7l34.9-75l32.9,75H514l-8.3-18.8H466.2z M486.4,12.7l-17.8,38.4h34.8L486.4,12.7z"/>
	<path class="st0" d="M536.1,14.8V75H531V0l51.3,61.3V0.9h5.1v75.4L536.1,14.8z"/>
</g>
</svg>
