<?xml version="1.0" encoding="utf-8"?>
<!-- Generator: Adobe Illustrator 22.1.0, SVG Export Plug-In . SVG Version: 6.00 Build 0)  -->
<svg version="1.1" id="Layer_1" xmlns="http://www.w3.org/2000/svg" xmlns:xlink="http://www.w3.org/1999/xlink" x="0px" y="0px"
	 viewBox="0 0 363 317.7" style="enable-background:new 0 0 363 317.7;" xml:space="preserve">
<style type="text/css">
	.st0{fill:#541700;}
	.st1{fill:#7B2E00;}
	.st2{fill:#A0410D;}
	.st3{fill:#C8541A;}
	.st4{fill:#220000;}
</style>
<g id="Tetronian_3_">
	<g id="_x34_">
		<path class="st0" d="M127.3,17.4c-2-0.3-4-0.6-6-0.9c0,0,0,0.1,0,0.1c0.4,1.2,0.9,2.5,1.4,3.8c0.1,0.2,0.2,0.5,0.3,0.7
			c0.5,1.3,1,2.6,1.6,4c0.1,0.3,0.2,0.5,0.3,0.8c0.6,1.4,1.2,2.8,1.9,4.3c0.1,0.1,0.1,0.2,0.2,0.4c0.6,1.4,1.3,2.9,2,4.4
			c0.1,0.1,0.1,0.3,0.2,0.4c0.5,0.1,1,0.3,1.4,0.4c2.7,0.7,5.3,1.4,7.8,2.1c0.3,0.1,0.7,0.2,1,0.3c0.7,0.2,1.5,0.4,2.2,0.6
			c0.4,0.1,0.8,0.2,1.2,0.3c0.7,0.2,1.4,0.3,2.1,0.5c0.4,0.1,0.8,0.2,1.3,0.3c0.7,0.2,1.3,0.3,1.9,0.4c0.4,0.1,0.9,0.2,1.3,0.3
			c0.6,0.1,1.2,0.3,1.8,0.4c0.5,0.1,1,0.2,1.4,0.3c0.5,0.1,1.1,0.2,1.6,0.3c0.2,0,0.3,0.1,0.5,0.1c0-0.1-0.1-0.3-0.1-0.4
			c-0.4-1.7-0.8-3.3-1.2-4.9c-0.1-0.3-0.1-0.6-0.2-0.9c-0.4-1.6-0.8-3.2-1.1-4.8c0-0.2-0.1-0.3-0.1-0.5c-0.3-1.5-0.7-3.1-1-4.5
			c0-0.1-0.1-0.3-0.1-0.4c-0.3-1.5-0.6-3-0.9-4.4c0-0.1-0.1-0.3-0.1-0.5c-3.1-0.3-6.5-0.7-10.6-1.3c-0.7-0.1-1.4-0.2-2.2-0.3
			l-1.8-0.2C132.7,18.1,130,17.7,127.3,17.4z"/>
		<path class="st0" d="M87.9,11.1c0,0.1,0.1,0.2,0.1,0.3c0.4,0.9,0.8,1.8,1.2,2.7c0.1,0.1,0.1,0.2,0.2,0.3c0.5,1,1,1.9,1.5,2.9
			c0.1,0.2,0.2,0.4,0.3,0.6c0.5,1,1.1,2,1.7,3.1c0.1,0.2,0.2,0.3,0.3,0.5c0.6,1,1.2,2,1.8,3c0.1,0.1,0.1,0.2,0.2,0.4
			c4.3,1.5,8.6,2.9,12.7,4.2c0.2,0.1,0.5,0.1,0.7,0.2c1.1,0.4,2.3,0.7,3.4,1.1c0.3,0.1,0.7,0.2,1,0.3c1,0.3,2,0.6,3,0.9
			c0.4,0.1,0.8,0.2,1.1,0.3c0.9,0.3,1.9,0.6,2.8,0.8c0.4,0.1,0.8,0.3,1.3,0.4c0.8,0.3,1.7,0.5,2.5,0.7c0.5,0.1,1,0.3,1.4,0.4
			c0.2,0.1,0.4,0.1,0.6,0.2c-3.1-6.7-5.6-12.8-7.5-18.3c-7.6-1.2-15.9-2.5-24.5-4C91.8,11.7,89.8,11.4,87.9,11.1z"/>
		<path class="st0" d="M152.8,20.5c1.3,6.6,2.9,13.8,4.9,21.6c8.7,1.6,16.3,2.5,22.5,2.6V22.3c-4.4,0-9.3-0.3-14.8-0.7
			c-0.7,0-1.3-0.1-2-0.2c-2-0.2-4-0.3-6.1-0.5c-0.6,0-1.1-0.1-1.7-0.2l-1.2-0.1C153.9,20.7,153.3,20.6,152.8,20.5z"/>
		<path class="st0" d="M52,8.8c-0.1-0.2-0.2-0.4-0.3-0.6c-0.2-0.5-0.4-0.9-0.6-1.4c-0.1-0.3-0.3-0.7-0.4-1c-0.2-0.4-0.4-0.9-0.5-1.3
			C50.1,4.4,50,4.2,49.9,4c-7.7-1.5-14.4-2.9-19.9-4C37.2,3,44.7,6,52,8.8z"/>
		<path class="st0" d="M53,4.6c0.7,1.8,1.7,3.7,2.8,5.7c6,2.3,11.9,4.5,17.7,6.7c0.2,0.1,0.5,0.2,0.7,0.3c2.6,1,5.2,1.9,7.8,2.8
			c0.5,0.2,1,0.4,1.5,0.5c2.4,0.9,4.8,1.7,7.1,2.5c0.2,0.1,0.4,0.1,0.6,0.2c-2.8-4.6-5-8.9-6.6-12.9c-5.9-1-11.8-2.1-17.5-3.2
			C62.3,6.4,57.5,5.5,53,4.6z"/>
		<path class="st0" d="M212.9,20.7c-0.3,1.4-0.6,2.9-0.9,4.4c0,0.1-0.1,0.3-0.1,0.4c-0.3,1.5-0.6,3-1,4.6c0,0.2-0.1,0.3-0.1,0.5
			c-0.4,1.6-0.7,3.2-1.1,4.8c-0.1,0.3-0.1,0.6-0.2,0.9c-0.4,1.6-0.8,3.2-1.2,4.9c0,0.1-0.1,0.3-0.1,0.4c0.1,0,0.3-0.1,0.4-0.1
			c0.6-0.1,1.2-0.3,1.9-0.4c0.4-0.1,0.7-0.2,1.1-0.2c0.7-0.1,1.4-0.3,2.1-0.5c0.3-0.1,0.6-0.1,1-0.2c0.8-0.2,1.5-0.3,2.3-0.5
			c0.3-0.1,0.5-0.1,0.8-0.2c0.8-0.2,1.7-0.4,2.5-0.6c0.2,0,0.3-0.1,0.5-0.1c4-1,8.3-2.1,12.7-3.3c0.1,0,0.2-0.1,0.3-0.1
			c0.1-0.1,0.1-0.3,0.2-0.4c0.7-1.5,1.4-2.9,2-4.4c0.1-0.1,0.1-0.2,0.2-0.3c0.7-1.5,1.3-2.9,1.9-4.3c0.1-0.3,0.2-0.5,0.3-0.8
			c0.6-1.4,1.1-2.7,1.6-4c0.1-0.3,0.2-0.5,0.3-0.7c0.5-1.3,1-2.6,1.4-3.8c0,0,0-0.1,0-0.1c-2,0.3-4,0.6-6,0.9
			c-2.7,0.4-5.4,0.8-8.1,1.1l-1.8,0.2c-0.7,0.1-1.4,0.2-2.1,0.3c-4.1,0.5-7.5,0.9-10.6,1.3C213,20.4,212.9,20.6,212.9,20.7z"/>
		<path class="st0" d="M237.2,34.4c0.2-0.1,0.4-0.1,0.6-0.2c0.4-0.1,0.9-0.3,1.3-0.4c0.9-0.3,1.8-0.5,2.7-0.8c0.3-0.1,0.7-0.2,1-0.3
			c1-0.3,2-0.6,3.1-0.9c0.3-0.1,0.6-0.2,0.9-0.3c1.1-0.3,2.1-0.7,3.2-1c0.3-0.1,0.6-0.2,0.9-0.3c1.1-0.3,2.2-0.7,3.3-1.1
			c0.3-0.1,0.6-0.2,0.8-0.3c1.3-0.4,2.6-0.8,3.9-1.3c0.1,0,0.2-0.1,0.3-0.1c2.8-0.9,5.6-1.9,8.5-2.8c0.1-0.1,0.1-0.2,0.2-0.4
			c0.6-1,1.2-2,1.8-2.9c0.1-0.2,0.2-0.3,0.3-0.5c0.6-1,1.2-2,1.7-3c0.1-0.2,0.2-0.4,0.4-0.6c0.5-1,1-2,1.5-2.9
			c0.1-0.1,0.1-0.2,0.2-0.4c0.4-0.9,0.8-1.8,1.2-2.6c0-0.1,0.1-0.2,0.1-0.3c-1.9,0.3-3.9,0.7-5.9,1c-8.7,1.5-16.9,2.8-24.5,4
			C242.9,21.6,240.3,27.7,237.2,34.4z"/>
		<path class="st0" d="M197.6,21.7c-5.4,0.4-10.4,0.6-14.8,0.7v22.5c6.2-0.1,13.7-1,22.5-2.6c2-7.8,3.6-15.1,4.9-21.6
			c-0.6,0.1-1.1,0.1-1.7,0.2l-1.2,0.1c-0.6,0.1-1.1,0.1-1.7,0.2c-2.1,0.2-4.1,0.4-6.1,0.5C198.9,21.6,198.3,21.6,197.6,21.7z"/>
		<path class="st0" d="M332.9,0c-5.4,1.1-12.2,2.5-19.9,4c-0.1,0.2-0.2,0.4-0.2,0.6c-0.2,0.4-0.3,0.9-0.5,1.3
			c-0.1,0.3-0.3,0.6-0.4,1c-0.2,0.5-0.4,0.9-0.6,1.4c-0.1,0.2-0.2,0.4-0.3,0.6C318.3,6,325.8,3,332.9,0z"/>
		<path class="st0" d="M271.7,23.4c0.2-0.1,0.3-0.1,0.5-0.2c2.5-0.9,5-1.7,7.5-2.6c0.3-0.1,0.7-0.2,1-0.4c2.7-1,5.4-2,8.2-3
			c0.1,0,0.2-0.1,0.3-0.1c5.9-2.2,11.9-4.4,17.9-6.8c1.1-2,2.1-3.9,2.8-5.7c-4.5,0.9-9.2,1.8-14.2,2.7c-5.7,1.1-11.6,2.2-17.5,3.2
			C276.6,14.4,274.4,18.7,271.7,23.4z"/>
		<path class="st0" d="M120.5,226.5c0-0.1,0.1-0.1,0.1-0.1c0.2-0.2,0.4-0.4,0.5-0.6c0.4-0.4,0.7-0.8,1.1-1.3
			c0.2-0.2,0.4-0.5,0.6-0.7c0.3-0.4,0.7-0.8,1-1.3c0.2-0.3,0.4-0.5,0.6-0.8c0.3-0.4,0.7-0.9,1-1.3c0.2-0.3,0.4-0.6,0.6-0.8
			c0.4-0.5,0.7-0.9,1.1-1.4c0.2-0.3,0.4-0.5,0.6-0.8c0.4-0.6,0.9-1.2,1.3-1.7c0.1-0.2,0.3-0.4,0.4-0.6c0.6-0.8,1.2-1.6,1.7-2.4
			c0.1-0.1,0.2-0.3,0.3-0.4c0.4-0.6,0.8-1.2,1.2-1.8c-0.1-0.4-0.2-0.8-0.3-1.2c-0.7-2.8-1.5-5.5-2.2-8.2c-0.1-0.3-0.2-0.6-0.2-0.9
			c-0.2-0.8-0.4-1.5-0.6-2.3c-0.1-0.4-0.2-0.7-0.3-1.1c-0.2-0.7-0.4-1.4-0.6-2.1c-0.1-0.4-0.2-0.8-0.4-1.2c-0.2-0.6-0.4-1.3-0.6-1.9
			c-0.1-0.4-0.3-0.9-0.4-1.3c-0.2-0.6-0.4-1.1-0.5-1.7c-0.2-0.5-0.3-1-0.5-1.5c-0.2-0.5-0.3-1-0.5-1.5c-0.1-0.2-0.1-0.4-0.2-0.5
			c-0.1,0.1-0.2,0.2-0.3,0.3c-1.2,1.2-2.5,2.4-3.7,3.5c-0.2,0.2-0.4,0.4-0.6,0.6c-1.2,1.2-2.4,2.3-3.6,3.4c-0.1,0.1-0.2,0.2-0.4,0.3
			c-1.2,1.1-2.4,2.1-3.5,3.2c-0.1,0.1-0.2,0.2-0.3,0.3c-1.2,1-2.3,2-3.4,3c-0.1,0.1-0.2,0.2-0.3,0.3c1.3,2.9,2.6,6,4.2,9.8
			c0.3,0.7,0.6,1.3,0.8,2l0.7,1.7c1,2.5,2.1,5,3.1,7.6C119,222.7,119.7,224.6,120.5,226.5z"/>
		<path class="st0" d="M132.5,258.1c0.3-0.4,0.5-0.8,0.8-1.1c0.1-0.1,0.1-0.1,0.2-0.2c0.4-0.5,0.8-1.1,1.1-1.7
			c0.1-0.2,0.2-0.3,0.3-0.5c0.3-0.4,0.5-0.8,0.8-1.3c0.1-0.2,0.3-0.4,0.4-0.7c0.2-0.4,0.5-0.8,0.7-1.2c0.1-0.2,0.3-0.5,0.4-0.7
			c0.3-0.4,0.5-0.9,0.8-1.3c0.1-0.2,0.3-0.4,0.4-0.7c0.4-0.6,0.7-1.3,1.1-1.9c0.1-0.1,0.1-0.2,0.2-0.4c0.3-0.5,0.6-1.1,0.9-1.7
			c-0.9-4.5-1.8-8.9-2.7-13.1c0-0.2-0.1-0.3-0.1-0.5c-0.3-1.3-0.5-2.5-0.8-3.7c-0.1-0.3-0.1-0.5-0.2-0.8c-0.3-1.1-0.5-2.2-0.8-3.3
			c-0.1-0.3-0.1-0.6-0.2-0.9c-0.2-1-0.5-2-0.7-3.1c-0.1-0.4-0.2-0.7-0.3-1.1c-0.2-0.9-0.4-1.8-0.7-2.7c-0.1-0.4-0.2-0.9-0.3-1.3
			c-0.1-0.2-0.1-0.4-0.2-0.6c-4.2,6-8.3,11.3-12.1,15.7c2.8,7.2,5.8,15,8.8,23.2C131.1,254.4,131.8,256.2,132.5,258.1z"/>
		<path class="st0" d="M107.1,194.6l0.4,0.9c0.2,0.5,0.5,1.1,0.7,1.7c5.1-4.4,10.5-9.4,16.3-15.1c-2.9-8.4-6-15.4-9-20.8l-15.7,9.1
			l-3.8,2.2c2.2,3.8,4.4,8.2,6.8,13.1c0.3,0.6,0.6,1.2,0.9,1.8c0.9,1.8,1.7,3.6,2.6,5.5C106.6,193.5,106.8,194,107.1,194.6z"/>
		<path class="st0" d="M148.5,290.3c-0.1,0.2-0.2,0.3-0.4,0.5c-0.3,0.4-0.6,0.8-0.9,1.2c-0.2,0.3-0.4,0.6-0.6,0.9
			c-0.3,0.4-0.6,0.8-0.9,1.1c-0.1,0.2-0.3,0.3-0.4,0.5c2.5,7.4,4.7,14,6.5,19.2C150.8,306,149.7,298.1,148.5,290.3z"/>
		<path class="st0" d="M144.3,291.5c1.2-1.6,2.4-3.3,3.5-5.3c-0.7-4.8-1.5-9.5-2.3-14.2c0-0.1,0-0.2,0-0.3c-0.2-1.2-0.4-2.4-0.6-3.7
			c-0.1-0.5-0.2-1-0.3-1.5c-0.2-1-0.3-2-0.5-3c-0.1-0.7-0.3-1.4-0.4-2.2c-0.1-0.8-0.3-1.6-0.4-2.4c-0.2-0.9-0.3-1.9-0.5-2.8
			c-0.1-0.6-0.2-1.2-0.3-1.7c-0.2-1.2-0.5-2.5-0.7-3.7c-0.1-0.3-0.1-0.6-0.2-0.8c-0.1-0.3-0.1-0.7-0.2-1c-2.6,4.7-5.3,8.8-7.8,12.1
			c2.1,5.7,4.1,11.3,6,16.8C141.2,282.6,142.8,287.2,144.3,291.5z"/>
		<path class="st0" d="M77.9,145.1c0.4-0.1,0.7-0.2,1.1-0.4c0.3-0.1,0.6-0.2,0.9-0.3c0.6-0.2,1.2-0.4,1.8-0.6
			c0.3-0.1,0.5-0.2,0.8-0.3c0.9-0.3,1.8-0.6,2.7-0.9c0,0,0.1,0,0.1,0c0.9-0.3,1.7-0.6,2.6-0.8c0.3-0.1,0.7-0.2,1-0.3
			c0.6-0.2,1.2-0.4,1.9-0.6c0.4-0.1,0.8-0.2,1.2-0.3c0.6-0.2,1.2-0.4,1.8-0.5c0.4-0.1,0.8-0.2,1.2-0.4c0.6-0.2,1.2-0.3,1.8-0.5
			c0.4-0.1,0.8-0.2,1.2-0.4c0.2-0.1,0.4-0.1,0.7-0.2c-0.1-0.1-0.2-0.2-0.3-0.3c-0.4-0.5-0.8-0.9-1.2-1.4c-0.3-0.3-0.5-0.6-0.8-0.9
			c-0.5-0.5-0.9-1-1.4-1.5c-0.2-0.3-0.5-0.5-0.7-0.8c-0.5-0.6-1-1.1-1.6-1.7c-0.2-0.2-0.4-0.4-0.6-0.6c-0.6-0.6-1.2-1.2-1.7-1.8
			c-0.1-0.2-0.3-0.3-0.4-0.5c-2.9-3-5.9-6.1-9.2-9.3c-0.1-0.1-0.1-0.1-0.2-0.2c-0.7,0.1-1.4,0.1-2,0.2c-0.2,0-0.5,0-0.7,0.1
			c-1,0.1-2,0.2-2.9,0.3c-0.3,0-0.5,0.1-0.8,0.1c-0.7,0.1-1.4,0.1-2.1,0.2c-0.3,0-0.7,0.1-1,0.1c-0.6,0.1-1.2,0.1-1.8,0.2
			c-0.4,0-0.7,0.1-1.1,0.1c-0.5,0.1-1.1,0.1-1.6,0.2c-0.4,0.1-0.7,0.1-1.1,0.2c-0.5,0.1-1.1,0.2-1.6,0.2c-0.3,0.1-0.7,0.1-1,0.2
			c-0.6,0.1-1.1,0.2-1.6,0.3c-0.3,0-0.6,0.1-0.8,0.1c-0.1,0-0.1,0-0.2,0c1.3,1.6,2.5,3.2,3.8,4.8c1.7,2.2,3.4,4.3,5,6.5l1.1,1.5
			c0.4,0.6,0.9,1.1,1.3,1.7C74,139.8,76,142.6,77.9,145.1z"/>
		<path class="st0" d="M58.4,119.8c5.7-1.1,12.3-2,19.6-2.7c-0.1-0.1-0.3-0.3-0.4-0.4c-0.4-0.3-0.7-0.7-1.1-1
			c-0.6-0.6-1.3-1.2-1.9-1.9c-0.3-0.3-0.6-0.5-0.8-0.8c-0.7-0.7-1.5-1.4-2.3-2.1c-0.3-0.2-0.5-0.5-0.8-0.7c-0.8-0.7-1.6-1.5-2.4-2.2
			c-0.2-0.2-0.5-0.4-0.7-0.7c-0.8-0.8-1.7-1.5-2.6-2.3c-0.2-0.2-0.4-0.4-0.7-0.6c-1-0.9-1.9-1.8-2.9-2.6c-0.1-0.1-0.2-0.2-0.3-0.3
			c-2.2-1.9-4.4-3.9-6.7-5.9c-0.7,0-1.3,0-2-0.1c-0.1,0-0.1,0-0.2,0c-0.8,0-1.5,0-2.3,0c-0.3,0-0.5,0-0.8,0c-0.5,0-1,0-1.5,0
			c-0.3,0-0.6,0-0.9,0c-0.5,0-0.9,0-1.4,0c-0.3,0-0.6,0-0.8,0c-0.5,0-1,0-1.4,0.1c-0.2,0-0.4,0-0.7,0c-0.7,0-1.3,0.1-2,0.1
			c-0.1,0-0.2,0-0.3,0c-0.5,0-0.9,0.1-1.3,0.1c1.3,1.5,2.5,3,3.8,4.6C48.3,107.3,53.6,113.8,58.4,119.8z"/>
		<path class="st0" d="M86.8,157.8c3.1,4.5,5.7,8.7,8,12.5l19.5-11.2c-3.2-5.3-7.7-11.4-13.5-18.1c-7.8,2.2-14.9,4.4-21.2,6.6
			c0.3,0.4,0.6,0.8,0.9,1.2l0.8,1.1c0.3,0.5,0.7,0.9,1,1.4c1.2,1.7,2.4,3.4,3.5,5C86.1,156.7,86.4,157.2,86.8,157.8z"/>
		<path class="st0" d="M0.4,51.4c3.7,4.1,8.2,9.3,13.4,15.2c0.2,0,0.4-0.1,0.6-0.1c0.5-0.1,0.9-0.1,1.4-0.2c0.3,0,0.7-0.1,1-0.1
			c0.5-0.1,1-0.1,1.5-0.1c0.2,0,0.4,0,0.6-0.1C12.8,61.1,6.5,56.1,0.4,51.4z"/>
		<path class="st0" d="M36.8,93.5c4.2-0.6,9-0.8,14.4-0.7c-0.2-0.2-0.4-0.3-0.6-0.5c-0.4-0.4-0.9-0.7-1.3-1.1
			c-0.7-0.6-1.4-1.2-2.2-1.9c-0.6-0.5-1.3-1.1-1.9-1.6c-0.5-0.4-1-0.9-1.6-1.3c-0.8-0.7-1.6-1.4-2.4-2c-0.3-0.3-0.7-0.6-1-0.9
			c-1-0.8-1.9-1.6-2.9-2.4c-0.1-0.1-0.2-0.2-0.4-0.3c-4.8-4-9.7-8-14.7-12.1c-2.3,0-4.4,0.1-6.4,0.4c3,3.4,6.2,7.1,9.5,10.9
			C29.1,84.4,33,88.9,36.8,93.5z"/>
		<path class="st0" d="M302.7,122.1c-0.1,0-0.1,0-0.2,0c-0.3-0.1-0.6-0.1-0.8-0.2c-0.5-0.1-1.1-0.2-1.6-0.3c-0.3-0.1-0.7-0.1-1-0.2
			c-0.5-0.1-1.1-0.2-1.6-0.3c-0.3-0.1-0.7-0.1-1-0.2c-0.5-0.1-1.1-0.2-1.6-0.2c-0.4,0-0.7-0.1-1.1-0.1c-0.6-0.1-1.2-0.1-1.8-0.2
			c-0.3,0-0.7-0.1-1-0.1c-0.7-0.1-1.4-0.2-2.1-0.2c-0.3,0-0.5-0.1-0.8-0.1c-1-0.1-2-0.2-3-0.3c-0.2,0-0.5,0-0.7-0.1
			c-0.7-0.1-1.4-0.1-2-0.2c-0.4,0.4-0.7,0.7-1.1,1.1c-2,2-3.9,3.9-5.8,5.8c-0.2,0.2-0.4,0.4-0.6,0.7c-0.5,0.6-1.1,1.1-1.6,1.7
			c-0.3,0.3-0.6,0.6-0.8,0.9c-0.5,0.5-1,1-1.5,1.5c-0.3,0.3-0.6,0.6-0.9,0.9c-0.5,0.5-0.9,1-1.3,1.4c-0.3,0.3-0.6,0.7-0.9,1
			c-0.4,0.4-0.8,0.9-1.2,1.3c-0.3,0.4-0.7,0.8-1,1.1c-0.4,0.4-0.7,0.8-1,1.2c-0.1,0.1-0.2,0.3-0.4,0.4c0.2,0.1,0.5,0.1,0.7,0.2
			c0.4,0.1,0.8,0.2,1.2,0.3c0.6,0.2,1.2,0.4,1.9,0.5c0.4,0.1,0.8,0.2,1.2,0.3c0.6,0.2,1.2,0.4,1.8,0.5c0.4,0.1,0.7,0.2,1.1,0.3
			c0.6,0.2,1.3,0.4,1.9,0.6c0.3,0.1,0.6,0.2,0.9,0.3c0.9,0.3,1.8,0.6,2.6,0.8c0.1,0,0.1,0,0.2,0c0.9,0.3,1.8,0.6,2.7,0.9
			c0.3,0.1,0.5,0.2,0.8,0.3c0.6,0.2,1.2,0.4,1.8,0.6c0.3,0.1,0.6,0.2,1,0.3c0.4,0.1,0.7,0.2,1.1,0.4c1.9-2.5,3.9-5.3,6.4-8.6
			c0.4-0.6,0.9-1.1,1.3-1.7l1.1-1.5c1.6-2.1,3.3-4.3,5-6.5C300.2,125.3,301.5,123.7,302.7,122.1z"/>
		<path class="st0" d="M322.7,95.8c-0.1,0-0.2,0-0.3,0c-0.6-0.1-1.3-0.1-2-0.1c-0.2,0-0.4,0-0.6,0c-0.5,0-1-0.1-1.5-0.1
			c-0.3,0-0.5,0-0.8,0c-0.5,0-0.9,0-1.4,0c-0.3,0-0.5,0-0.8,0c-0.5,0-1,0-1.6,0c-0.2,0-0.5,0-0.7,0c-0.8,0-1.5,0-2.3,0
			c0,0,0,0-0.1,0c-0.7,0-1.4,0-2.1,0.1c-3.4,3-6.8,6-10,8.9c-0.2,0.2-0.3,0.3-0.5,0.5c-0.9,0.8-1.8,1.6-2.7,2.4
			c-0.3,0.2-0.5,0.5-0.7,0.7c-0.8,0.7-1.6,1.5-2.4,2.2c-0.3,0.3-0.6,0.5-0.8,0.8c-0.7,0.7-1.5,1.4-2.2,2c-0.3,0.3-0.6,0.6-0.9,0.8
			c-0.7,0.6-1.3,1.3-2,1.9c-0.3,0.3-0.7,0.6-1,0.9c-0.2,0.1-0.3,0.3-0.5,0.4c7.3,0.6,13.9,1.5,19.6,2.7c4.8-6,10.1-12.5,15.7-19.2
			c1.3-1.5,2.5-3.1,3.8-4.6C323.7,95.9,323.2,95.9,322.7,95.8z"/>
		<path class="st0" d="M283.5,147.4c-6.3-2.2-13.4-4.4-21.2-6.6c-5.8,6.7-10.3,12.8-13.5,18.1l19.5,11.2c2.2-3.8,4.9-7.9,8-12.5
			c0.4-0.5,0.7-1.1,1.1-1.6c1.1-1.6,2.3-3.3,3.5-5c0.3-0.5,0.7-1,1-1.4l0.6-0.9C282.8,148.3,283.1,147.9,283.5,147.4z"/>
		<path class="st0" d="M344,66c0.2,0,0.4,0,0.6,0.1c0.5,0,1.1,0.1,1.6,0.1c0.3,0,0.7,0.1,1,0.1c0.5,0.1,1,0.1,1.4,0.2
			c0.2,0,0.4,0.1,0.6,0.1c5.1-5.9,9.7-11.1,13.4-15.2C356.5,56.1,350.1,61.1,344,66z"/>
		<path class="st0" d="M347.1,69c-2-0.3-4.1-0.4-6.4-0.4c-3.7,3-7.4,6-11,9c-0.1,0.1-0.3,0.2-0.4,0.3c-0.9,0.8-1.8,1.5-2.8,2.3
			c-0.4,0.3-0.8,0.7-1.3,1c-0.7,0.6-1.5,1.2-2.2,1.8c-0.6,0.5-1.2,1-1.8,1.5c-0.6,0.5-1.1,1-1.7,1.4c-0.8,0.7-1.6,1.3-2.4,2
			c-0.4,0.3-0.8,0.7-1.2,1c-1,0.9-2.1,1.8-3.1,2.6c-0.1,0.1-0.3,0.2-0.4,0.4c-0.3,0.2-0.5,0.5-0.8,0.7c0.6,0,1.2,0,1.8,0
			c4.7,0,8.9,0.3,12.6,0.8c3.9-4.6,7.7-9.1,11.5-13.6C341,76.1,344.1,72.4,347.1,69z"/>
		<path class="st0" d="M253.6,199.7c-0.1-0.1-0.2-0.2-0.3-0.3c-1.1-1-2.2-1.9-3.4-3c-0.1-0.1-0.2-0.2-0.3-0.3
			c-1.1-1-2.3-2.1-3.5-3.1c-0.1-0.1-0.2-0.2-0.4-0.3c-1.2-1.1-2.4-2.2-3.6-3.4c-0.2-0.2-0.4-0.4-0.7-0.6c-1.2-1.1-2.4-2.3-3.6-3.5
			c-0.1-0.1-0.2-0.2-0.3-0.3c-0.1,0.2-0.1,0.3-0.2,0.5c-0.2,0.5-0.4,1.1-0.5,1.6c-0.1,0.4-0.3,0.8-0.4,1.2c-0.2,0.6-0.4,1.3-0.6,1.9
			c-0.1,0.3-0.2,0.7-0.3,1c-0.2,0.7-0.4,1.4-0.7,2.2c-0.1,0.3-0.2,0.6-0.3,0.9c-0.2,0.8-0.5,1.6-0.7,2.4c-0.1,0.2-0.1,0.4-0.2,0.5
			c-1.2,4.1-2.4,8.4-3.5,12.9c0.4,0.6,0.8,1.2,1.2,1.8c0.1,0.1,0.2,0.3,0.3,0.4c0.6,0.8,1.2,1.6,1.7,2.4c0.1,0.2,0.3,0.4,0.4,0.6
			c0.4,0.6,0.8,1.2,1.3,1.7c0.2,0.3,0.4,0.6,0.6,0.8c0.4,0.5,0.7,0.9,1.1,1.4c0.2,0.3,0.4,0.6,0.7,0.9c0.3,0.4,0.7,0.9,1,1.3
			c0.2,0.3,0.4,0.6,0.7,0.8c0.3,0.4,0.7,0.8,1,1.2c0.2,0.3,0.4,0.5,0.6,0.8c0.4,0.4,0.7,0.9,1.1,1.3c0.2,0.2,0.4,0.4,0.5,0.6
			c0,0.1,0.1,0.1,0.1,0.1c0.7-1.9,1.5-3.8,2.3-5.7c1-2.5,2.1-5.1,3.1-7.6l0.7-1.7c0.3-0.7,0.6-1.3,0.8-2
			C251,205.7,252.3,202.6,253.6,199.7z"/>
		<path class="st0" d="M229.3,213.6c0,0.2-0.1,0.4-0.1,0.5c-0.1,0.5-0.2,1-0.4,1.4c-0.2,0.9-0.4,1.8-0.6,2.7
			c-0.1,0.3-0.2,0.7-0.2,1.1c-0.2,1-0.5,2-0.7,3.1c-0.1,0.3-0.1,0.6-0.2,0.9c-0.2,1.1-0.5,2.1-0.7,3.2c-0.1,0.3-0.1,0.6-0.2,1
			c-0.2,1.1-0.5,2.2-0.7,3.3c-0.1,0.3-0.1,0.6-0.2,1c-0.3,1.2-0.5,2.4-0.8,3.7c0,0.2-0.1,0.4-0.1,0.6c-0.6,2.8-1.2,5.7-1.8,8.7
			c0.3,0.6,0.6,1.2,0.9,1.7c0,0.1,0.1,0.2,0.1,0.2c0.4,0.7,0.7,1.3,1.1,2c0.1,0.2,0.2,0.4,0.4,0.6c0.3,0.5,0.5,0.9,0.8,1.3
			c0.1,0.2,0.3,0.5,0.4,0.7c0.3,0.4,0.5,0.8,0.8,1.2c0.1,0.2,0.3,0.4,0.4,0.6c0.3,0.4,0.5,0.8,0.8,1.3c0.1,0.2,0.2,0.3,0.3,0.5
			c0.4,0.6,0.8,1.1,1.1,1.7c0.1,0.1,0.1,0.1,0.2,0.2c0.3,0.4,0.6,0.8,0.8,1.1c0.7-1.8,1.4-3.7,2.1-5.6c3-8.2,6-16,8.8-23.2
			C237.5,224.9,233.5,219.7,229.3,213.6z"/>
		<path class="st0" d="M247.4,161.3c-3,5.4-6,12.4-9,20.8c5.8,5.6,11.2,10.7,16.3,15.1c0.2-0.5,0.5-1,0.7-1.6l0.5-1
			c0.2-0.5,0.5-1.1,0.7-1.6c0.9-1.9,1.7-3.7,2.6-5.5c0.3-0.6,0.6-1.2,0.9-1.8c2.4-4.9,4.7-9.3,6.8-13.1L247.4,161.3z"/>
		<path class="st0" d="M215.7,292c-0.3-0.4-0.6-0.8-0.9-1.2c-0.1-0.2-0.2-0.3-0.4-0.5c-1.2,7.8-2.3,15.8-3.3,23.4
			c1.7-5.2,3.9-11.8,6.5-19.2c-0.1-0.2-0.3-0.3-0.4-0.5c-0.3-0.4-0.6-0.7-0.9-1.1C216.2,292.6,215.9,292.3,215.7,292z"/>
		<path class="st0" d="M221.6,249c0,0.3-0.1,0.5-0.1,0.8c-0.1,0.6-0.2,1.1-0.3,1.7c-0.2,0.9-0.4,1.9-0.5,2.8
			c-0.2,0.8-0.3,1.7-0.5,2.5c-0.1,0.7-0.2,1.3-0.4,2c-0.2,1-0.4,2.1-0.6,3.1c-0.1,0.4-0.2,0.9-0.2,1.3c-0.2,1.3-0.4,2.5-0.7,3.8
			c0,0.1,0,0.3-0.1,0.4c-1.1,6.1-2.1,12.4-3.1,18.8c1.2,2,2.3,3.8,3.5,5.3c1.5-4.3,3.1-8.9,4.8-13.7c1.9-5.5,3.9-11.1,6-16.8
			C226.8,257.7,224.2,253.7,221.6,249z"/>
	</g>
	<g id="_x33_">
		<path class="st1" d="M130.8,38.6c0,0,0,0.1,0.1,0.1c0.8,1.6,1.6,3.1,2.4,4.8c0.1,0.3,0.3,0.6,0.4,0.9c0.8,1.6,1.7,3.2,2.6,4.8
			c0.2,0.3,0.3,0.6,0.5,0.9c0.9,1.7,1.9,3.4,2.8,5.1c0.1,0.2,0.2,0.4,0.3,0.6c1,1.7,1.9,3.4,3,5.1c0.1,0.1,0.2,0.3,0.2,0.4
			c0.1,0,0.3,0.1,0.4,0.1c1.4,0.5,2.8,1,4.2,1.5c0.2,0.1,0.3,0.1,0.5,0.2c1.4,0.5,2.8,0.9,4.2,1.4c0.3,0.1,0.5,0.2,0.8,0.2
			c1.3,0.4,2.7,0.8,4,1.2c0.2,0.1,0.5,0.1,0.7,0.2c1.3,0.4,2.6,0.7,3.9,1c0,0,0,0,0.1,0c-0.4-1.5-0.9-3-1.3-4.4c0,0,0,0,0,0
			c-0.6-2.2-1.3-4.3-1.8-6.4c0,0,0-0.1,0-0.1c-1.1-4-2.2-7.9-3.2-11.6h0l0,0C148.1,43,139.8,41.1,130.8,38.6z"/>
		<path class="st1" d="M158.4,45c1.9,7.2,4.1,14.8,6.5,22.8c0.4,0.1,0.7,0.2,1.1,0.2c0.3,0.1,0.5,0.1,0.8,0.2
			c0.6,0.1,1.2,0.2,1.8,0.4c0.1,0,0.3,0.1,0.4,0.1c0.7,0.1,1.5,0.3,2.2,0.4c0.2,0,0.4,0.1,0.6,0.1c0.5,0.1,1,0.2,1.5,0.2
			c0.3,0,0.5,0.1,0.8,0.1c0.4,0.1,0.8,0.1,1.3,0.2c0.3,0,0.5,0.1,0.8,0.1c0.4,0,0.8,0.1,1.2,0.1c0.3,0,0.5,0,0.8,0.1
			c0.4,0,0.8,0,1.1,0.1c0.2,0,0.5,0,0.7,0c0.1,0,0.2,0,0.3,0V47.5h0v0c-0.2,0-0.5,0-0.7,0c-0.3,0-0.7,0-1,0c-0.5,0-1.1,0-1.6-0.1
			c-0.3,0-0.7,0-1-0.1c-0.6,0-1.2-0.1-1.9-0.1c-0.3,0-0.6,0-0.9-0.1c-0.9-0.1-1.9-0.2-2.9-0.3c-0.2,0-0.3,0-0.5-0.1
			c-0.8-0.1-1.7-0.2-2.5-0.3c-0.4-0.1-0.8-0.1-1.1-0.2c-0.7-0.1-1.3-0.2-2-0.3c-0.4-0.1-0.9-0.1-1.3-0.2c-0.6-0.1-1.3-0.2-2-0.3
			c-0.5-0.1-0.9-0.2-1.4-0.2C159,45.1,158.7,45.1,158.4,45z"/>
		<path class="st1" d="M58.9,19.7c-0.4-0.5-0.7-1-1-1.4c-0.2-0.2-0.3-0.4-0.5-0.6c-0.3-0.4-0.5-0.8-0.8-1.2
			c-0.2-0.2-0.3-0.5-0.5-0.7c-0.2-0.4-0.5-0.7-0.7-1.1c-0.1-0.2-0.3-0.4-0.4-0.7c-0.2-0.4-0.5-0.7-0.7-1.1c-0.1-0.1-0.2-0.3-0.3-0.4
			c-8.9-3.4-16.7-6.6-23-9.2c0.9,0.5,1.8,1.1,2.7,1.7c0.1,0,0.2,0.1,0.2,0.1c0.9,0.6,1.8,1.1,2.8,1.7C36.9,6.9,37,7,37.2,7
			c2,1.2,4.1,2.5,6.3,3.8c0.1,0.1,0.2,0.1,0.3,0.2c1.1,0.6,2.1,1.3,3.3,1.9c0.2,0.1,0.4,0.2,0.5,0.3c1.1,0.7,2.3,1.3,3.4,2
			c0.1,0.1,0.2,0.1,0.3,0.2c1.2,0.7,2.4,1.4,3.6,2.1c0.1,0,0.1,0.1,0.2,0.1c1.2,0.7,2.5,1.4,3.7,2.2c0.1,0.1,0.2,0.1,0.3,0.2
			C59,20,58.9,19.8,58.9,19.7z"/>
		<path class="st1" d="M58.2,14.1c2,3,4.3,6.1,7,9.5c14.8,8.4,28.7,15.7,41.6,22c-0.3-0.4-0.6-0.7-0.8-1.1c-0.2-0.3-0.5-0.6-0.7-1
			c-0.6-0.8-1.2-1.5-1.7-2.3c-0.1-0.2-0.3-0.3-0.4-0.5c-0.7-0.9-1.4-1.8-2-2.7c-0.2-0.3-0.4-0.5-0.6-0.8c-0.5-0.6-0.9-1.3-1.4-1.9
			c-0.2-0.3-0.4-0.6-0.7-0.9c-0.4-0.6-0.8-1.2-1.2-1.8c-0.2-0.3-0.4-0.6-0.6-0.9c-0.5-0.7-0.9-1.4-1.4-2.1c-0.1-0.1-0.2-0.3-0.3-0.4
			c-0.5-0.8-1-1.5-1.4-2.2C82.4,23.1,70.5,18.8,58.2,14.1z"/>
		<path class="st1" d="M97.6,28.4c4,6.1,9,12.8,14.7,19.9c1.2,0.6,2.5,1.2,3.7,1.7c0.3,0.2,0.7,0.3,1,0.5c0.9,0.4,1.9,0.9,2.8,1.3
			c0.5,0.2,0.9,0.4,1.4,0.6c0.8,0.4,1.6,0.7,2.4,1.1c0.5,0.2,1,0.4,1.4,0.6c0.8,0.3,1.5,0.7,2.3,1c0.5,0.2,0.9,0.4,1.4,0.6
			c0.8,0.3,1.5,0.6,2.2,0.9c0.4,0.2,0.9,0.4,1.3,0.6c0.8,0.3,1.6,0.6,2.4,1c0.4,0.2,0.8,0.3,1.1,0.5c1.1,0.4,2.3,0.9,3.4,1.3
			c0,0,0,0,0,0c-4.5-7.9-8.5-15.3-11.8-22.2C118.2,35,108.2,31.9,97.6,28.4z"/>
		<path class="st1" d="M207.5,44.5c-1,3.7-2,7.6-3.1,11.6c0,0.1-0.1,0.2-0.1,0.3c-0.6,2-1.2,4.1-1.8,6.2c0,0.1,0,0.1-0.1,0.2
			c-0.4,1.4-0.8,2.9-1.3,4.3c0,0,0,0,0.1,0c1.3-0.3,2.6-0.7,3.9-1c0.2-0.1,0.5-0.1,0.7-0.2c1.3-0.4,2.6-0.8,4-1.2
			c0.3-0.1,0.5-0.2,0.8-0.2c1.4-0.4,2.8-0.9,4.2-1.4c0.2-0.1,0.3-0.1,0.5-0.2c1.4-0.5,2.8-1,4.2-1.5c0.1,0,0.3-0.1,0.4-0.1
			c0.1-0.1,0.2-0.3,0.2-0.4c1-1.7,2-3.4,2.9-5.1c0.1-0.2,0.2-0.4,0.4-0.6c1-1.7,1.9-3.4,2.8-5.1c0.2-0.3,0.3-0.6,0.5-0.9
			c0.9-1.6,1.7-3.2,2.6-4.8c0.2-0.3,0.3-0.6,0.5-0.9c0.8-1.6,1.6-3.2,2.4-4.7c0,0,0-0.1,0.1-0.1C223.2,41.1,214.9,43,207.5,44.5z"/>
		<path class="st1" d="M182.8,70c0.1,0,0.2,0,0.3,0c0.2,0,0.5,0,0.7,0c0.4,0,0.7,0,1.1-0.1c0.3,0,0.5,0,0.8-0.1
			c0.4,0,0.8-0.1,1.2-0.1c0.3,0,0.5-0.1,0.8-0.1c0.4,0,0.8-0.1,1.3-0.2c0.3,0,0.5-0.1,0.8-0.1c0.5-0.1,1-0.1,1.5-0.2
			c0.2,0,0.4-0.1,0.6-0.1c0.7-0.1,1.4-0.2,2.2-0.4c0.1,0,0.3-0.1,0.4-0.1c0.6-0.1,1.2-0.2,1.8-0.4c0.3-0.1,0.5-0.1,0.8-0.2
			c0.4-0.1,0.7-0.2,1.1-0.2c2.4-8,4.6-15.6,6.5-22.8c-0.3,0.1-0.6,0.1-0.9,0.2c-0.4,0.1-0.8,0.1-1.3,0.2c-0.7,0.1-1.4,0.2-2.1,0.4
			c-0.4,0.1-0.8,0.1-1.2,0.2c-0.7,0.1-1.5,0.2-2.2,0.3c-0.3,0-0.7,0.1-1,0.1c-0.9,0.1-1.9,0.2-2.8,0.3c-0.1,0-0.2,0-0.2,0
			c-1,0.1-2,0.2-2.9,0.3c-0.3,0-0.5,0-0.8,0.1c-0.7,0.1-1.3,0.1-2,0.2c-0.3,0-0.7,0-1,0.1c-0.6,0-1.1,0.1-1.7,0.1c-0.3,0-0.7,0-1,0
			c-0.2,0-0.5,0-0.8,0V70z"/>
		<path class="st1" d="M304.2,19.9c1.3-0.7,2.5-1.4,3.7-2.1c0.1,0,0.1-0.1,0.2-0.1c1.2-0.7,2.4-1.4,3.6-2.1c0.1-0.1,0.2-0.1,0.4-0.2
			c1.1-0.7,2.3-1.3,3.4-2c0.2-0.1,0.4-0.2,0.6-0.3c1.1-0.6,2.1-1.3,3.2-1.9c0.2-0.1,0.3-0.2,0.5-0.3c1-0.6,2-1.2,3-1.8
			c0.1,0,0.1-0.1,0.2-0.1c1-0.6,1.9-1.2,2.9-1.7c0.2-0.1,0.4-0.2,0.6-0.4c0.9-0.5,1.7-1.1,2.6-1.6c0.2-0.1,0.4-0.2,0.6-0.3
			c0.8-0.5,1.6-1,2.4-1.5c0,0,0.1,0,0.1-0.1c-6.2,2.6-14.1,5.7-23,9.2c-0.1,0.1-0.2,0.3-0.3,0.4c-0.2,0.4-0.4,0.7-0.7,1.1
			c-0.1,0.2-0.3,0.5-0.4,0.7c-0.2,0.4-0.5,0.7-0.7,1.1c-0.2,0.2-0.3,0.5-0.5,0.7c-0.3,0.4-0.5,0.8-0.8,1.2c-0.2,0.2-0.3,0.4-0.5,0.7
			c-0.3,0.5-0.7,0.9-1,1.4c-0.1,0.1-0.2,0.2-0.3,0.4C304,20,304.1,19.9,304.2,19.9z"/>
		<path class="st1" d="M269.4,27c-0.5,0.7-0.9,1.5-1.4,2.2c-0.1,0.1-0.2,0.3-0.3,0.4c-0.5,0.7-0.9,1.4-1.4,2.1
			c-0.2,0.3-0.4,0.6-0.6,0.9c-0.4,0.6-0.8,1.2-1.2,1.8c-0.2,0.3-0.4,0.6-0.7,0.9c-0.4,0.6-0.9,1.3-1.4,1.9c-0.2,0.3-0.4,0.5-0.6,0.8
			c-0.7,0.9-1.3,1.8-2,2.7c-0.1,0.2-0.2,0.3-0.4,0.5c-0.6,0.8-1.2,1.5-1.8,2.3c-0.2,0.3-0.5,0.6-0.7,0.9c-0.3,0.4-0.6,0.7-0.8,1.1
			c12.9-6.2,26.8-13.6,41.6-22c2.7-3.3,5.1-6.5,7-9.5C292.5,18.8,280.6,23.1,269.4,27z"/>
		<path class="st1" d="M235.7,37.6c-3.3,6.8-7.3,14.3-11.8,22.2c0,0,0,0,0,0c1.1-0.4,2.2-0.9,3.4-1.3c0.4-0.1,0.8-0.3,1.1-0.5
			c0.8-0.3,1.6-0.6,2.3-0.9c0.4-0.2,0.9-0.4,1.3-0.6c0.7-0.3,1.5-0.6,2.2-0.9c0.5-0.2,1-0.4,1.4-0.6c0.7-0.3,1.5-0.6,2.2-1
			c0.5-0.2,1-0.4,1.4-0.6c0.8-0.3,1.6-0.7,2.4-1.1c0.5-0.2,0.9-0.4,1.4-0.6c0.9-0.4,1.9-0.8,2.8-1.3c0.3-0.2,0.7-0.3,1-0.5
			c1.2-0.6,2.5-1.1,3.7-1.7c5.7-7.1,10.7-13.8,14.7-19.9C254.8,31.9,244.8,35,235.7,37.6z"/>
		<path class="st1" d="M134.9,207.2c0-0.1,0.1-0.1,0.1-0.1c0.2-0.3,0.4-0.5,0.5-0.8c0.4-0.6,0.8-1.3,1.2-1.9c0.2-0.3,0.4-0.7,0.7-1
			c0.4-0.6,0.8-1.2,1.1-1.8c0.2-0.4,0.5-0.7,0.7-1.1c0.4-0.6,0.8-1.2,1.1-1.8c0.2-0.4,0.5-0.8,0.7-1.1c0.4-0.6,0.8-1.3,1.2-1.9
			c0.2-0.4,0.4-0.7,0.7-1.1c0.4-0.7,0.9-1.4,1.3-2.2c0.2-0.3,0.4-0.6,0.5-0.9c1.2-2,2.4-4.1,3.6-6.2c-0.1-0.8-0.3-1.6-0.4-2.4
			c0-0.1,0-0.1,0-0.2c-0.2-0.9-0.4-1.9-0.5-2.8c-0.1-0.3-0.1-0.5-0.2-0.8c-0.1-0.6-0.3-1.3-0.4-1.9c-0.1-0.3-0.1-0.6-0.2-1
			c-0.1-0.6-0.2-1.1-0.4-1.7c-0.1-0.3-0.2-0.7-0.2-1c-0.1-0.5-0.3-1.1-0.4-1.6c-0.1-0.3-0.2-0.6-0.2-0.9c-0.1-0.5-0.3-1.1-0.4-1.6
			c-0.1-0.3-0.1-0.6-0.2-0.8c-0.2-0.6-0.3-1.2-0.5-1.8c0-0.2-0.1-0.3-0.1-0.5c0,0,0-0.1,0-0.1c-1.1,1.1-2.1,2.3-3.2,3.4c0,0,0,0,0,0
			c-1.6,1.6-3.1,3.2-4.6,4.8c0,0-0.1,0.1-0.1,0.1c-2.9,3-5.7,5.8-8.5,8.5l0,0l0,0C130.1,190,132.5,198.1,134.9,207.2z"/>
		<path class="st1" d="M126.6,180c5.3-5.2,10.8-10.9,16.5-17c-0.1-0.3-0.2-0.7-0.3-1c-0.1-0.3-0.2-0.5-0.3-0.8
			c-0.2-0.6-0.4-1.1-0.6-1.7c-0.1-0.2-0.1-0.3-0.2-0.5c-0.2-0.7-0.5-1.4-0.8-2.1c-0.1-0.2-0.1-0.4-0.2-0.6c-0.2-0.5-0.4-0.9-0.6-1.4
			c-0.1-0.2-0.2-0.5-0.3-0.7c-0.2-0.4-0.3-0.8-0.5-1.2c-0.1-0.2-0.2-0.5-0.3-0.7c-0.2-0.4-0.3-0.7-0.5-1.1c-0.1-0.2-0.2-0.5-0.3-0.7
			c-0.2-0.3-0.3-0.7-0.5-1c-0.1-0.2-0.2-0.4-0.3-0.6c0-0.1-0.1-0.2-0.1-0.3l-0.8,0.4L117.9,160l0,0l0,0c0.1,0.2,0.2,0.4,0.3,0.6
			c0.2,0.3,0.3,0.6,0.5,0.9c0.2,0.5,0.5,0.9,0.7,1.4c0.2,0.3,0.3,0.6,0.5,0.9c0.3,0.5,0.5,1.1,0.8,1.6c0.1,0.3,0.3,0.6,0.4,0.9
			c0.4,0.8,0.8,1.7,1.2,2.6c0.1,0.2,0.2,0.4,0.2,0.6c0.3,0.7,0.6,1.5,0.9,2.2c0.2,0.4,0.3,0.7,0.5,1.1c0.2,0.6,0.5,1.2,0.7,1.8
			c0.2,0.4,0.3,0.9,0.5,1.3c0.2,0.6,0.5,1.2,0.7,1.8c0.2,0.5,0.3,0.9,0.5,1.4C126.4,179.5,126.5,179.7,126.6,180z"/>
		<path class="st1" d="M154.7,278.5c-0.1,0.1-0.1,0.2-0.2,0.4c-0.2,0.6-0.5,1.1-0.7,1.6c-0.1,0.2-0.2,0.5-0.3,0.7
			c-0.2,0.4-0.4,0.9-0.6,1.3c-0.1,0.2-0.2,0.5-0.4,0.7c-0.2,0.4-0.4,0.8-0.6,1.2c-0.1,0.2-0.2,0.5-0.4,0.7c-0.2,0.4-0.4,0.8-0.6,1.1
			c-0.1,0.1-0.2,0.3-0.2,0.4c1.5,9.4,2.6,17.8,3.5,24.5c0-0.4,0-0.8,0-1.2c0-0.2,0-0.4,0-0.6c0-0.3,0-0.7,0-1c0-0.3,0-0.6,0-0.9
			c0-0.3,0-0.6,0-0.9c0-0.3,0-0.7,0-1c0-0.3,0-0.6,0-0.9c0-0.4,0-0.7,0-1.1c0-0.3,0-0.6,0-0.9c0-0.5,0-1,0-1.4c0-0.2,0-0.4,0-0.6
			c0-0.7,0-1.4,0-2.1c0-0.3,0-0.6,0-0.8c0-0.5,0-0.9,0-1.4c0-0.3,0-0.6,0-0.9c0-0.5,0-0.9,0-1.4c0-0.3,0-0.7,0-1c0-0.4,0-0.9,0-1.3
			c0-0.4,0-0.7,0-1.1c0-0.5,0-1,0-1.4c0-0.3,0-0.6,0-1c0-0.5,0-1.1,0-1.6c0-0.3,0-0.6,0-0.9c0-0.8,0-1.6,0-2.4c0-0.4,0-0.8,0-1.2
			c0-0.4,0-0.9,0-1.4c0-0.4,0-0.9,0-1.3C154.7,279,154.7,278.8,154.7,278.5z"/>
		<path class="st1" d="M150,282.3c1.6-3.2,3.2-6.8,4.7-10.8c-0.1-17-0.7-32.7-1.7-47c-0.2,0.4-0.4,0.9-0.5,1.3
			c-0.2,0.4-0.3,0.7-0.4,1.1c-0.4,0.9-0.8,1.8-1.1,2.7c-0.1,0.2-0.2,0.4-0.2,0.6c-0.4,1-0.9,2.1-1.3,3.1c-0.1,0.3-0.3,0.6-0.4,0.9
			c-0.3,0.7-0.6,1.4-1,2.1c-0.2,0.3-0.3,0.7-0.5,1c-0.3,0.7-0.6,1.3-0.9,1.9c-0.2,0.3-0.3,0.6-0.5,1c-0.4,0.8-0.7,1.5-1.1,2.3
			c-0.1,0.2-0.2,0.3-0.2,0.5c-0.4,0.8-0.8,1.6-1.2,2.4C145.7,256.8,147.9,269.3,150,282.3z"/>
		<path class="st1" d="M142.6,241c3.3-6.5,6.6-14.1,9.8-22.7c-0.1-1.4-0.2-2.7-0.4-4.1c0-0.4-0.1-0.7-0.1-1.1c-0.1-1-0.2-2-0.3-3.1
			c-0.1-0.5-0.1-1-0.2-1.5c-0.1-0.8-0.2-1.7-0.3-2.5c-0.1-0.5-0.1-1.1-0.2-1.6c-0.1-0.8-0.2-1.6-0.3-2.4c-0.1-0.5-0.1-1.1-0.2-1.6
			c-0.1-0.8-0.2-1.6-0.3-2.3c-0.1-0.5-0.1-1-0.2-1.5c-0.1-0.8-0.2-1.7-0.3-2.5c-0.1-0.4-0.1-0.8-0.2-1.2c-0.2-1.2-0.4-2.4-0.5-3.6
			c-4.6,7.9-9,15-13.3,21.3C138.1,219.9,140.4,230,142.6,241z"/>
		<path class="st1" d="M101.6,137.8c0.3-0.1,0.5-0.1,0.8-0.2c1.3-0.4,2.6-0.7,4-1.1c0.5-0.1,1-0.3,1.5-0.4c1.2-0.3,2.4-0.6,3.6-0.9
			c0.6-0.1,1.1-0.3,1.7-0.4c1.3-0.3,2.6-0.6,3.9-1c0.9-0.2,1.8-0.4,2.7-0.7c0.2,0,0.3-0.1,0.5-0.1c1.4-0.3,2.7-0.7,4.1-1
			c0,0,0,0-0.1-0.1c-0.1-0.1-0.3-0.3-0.4-0.4c-0.4-0.4-0.8-0.8-1.3-1.3c-0.2-0.2-0.5-0.4-0.7-0.7c-0.4-0.4-0.7-0.7-1.1-1.1
			c-0.2-0.2-0.5-0.5-0.7-0.7c-0.4-0.4-0.8-0.7-1.1-1.1c-0.3-0.2-0.5-0.5-0.8-0.7c-0.4-0.4-0.8-0.7-1.2-1.1c-0.3-0.2-0.5-0.5-0.8-0.7
			c-0.5-0.4-0.9-0.8-1.4-1.3c-0.2-0.2-0.4-0.4-0.7-0.6c-0.7-0.6-1.4-1.2-2.1-1.9c-0.1-0.1-0.1-0.1-0.2-0.2c-0.6-0.5-1.2-1-1.8-1.5
			c-2.5,0-4.9,0-7.3,0c-0.1,0-0.2,0-0.2,0c-1.1,0-2.3,0-3.4,0.1c-0.2,0-0.4,0-0.7,0c-1,0-1.9,0-2.9,0.1c-0.3,0-0.6,0-0.9,0
			c-0.9,0-1.7,0.1-2.6,0.1c-0.3,0-0.7,0-1,0c-0.8,0-1.6,0.1-2.4,0.1c-0.3,0-0.7,0-1,0c-0.8,0-1.6,0.1-2.4,0.1c-0.3,0-0.5,0-0.8,0
			c-0.1,0-0.1,0-0.2,0C90.8,125.9,96.7,132.1,101.6,137.8z"/>
		<path class="st1" d="M136,146.4c-0.1-0.1-0.1-0.2-0.2-0.3c-0.1-0.2-0.3-0.4-0.4-0.6c-0.2-0.3-0.4-0.6-0.6-1
			c-0.1-0.2-0.3-0.4-0.4-0.6c-0.2-0.3-0.4-0.6-0.7-1c-0.2-0.2-0.3-0.4-0.5-0.7c-0.2-0.3-0.5-0.7-0.7-1c-0.2-0.2-0.3-0.4-0.5-0.6
			c-0.3-0.4-0.6-0.8-0.9-1.2c-0.1-0.2-0.3-0.3-0.4-0.5c-0.5-0.6-0.9-1.1-1.4-1.7c-0.1-0.1-0.2-0.3-0.4-0.4c-0.4-0.4-0.7-0.9-1.1-1.3
			c-0.2-0.2-0.4-0.4-0.6-0.6c-0.2-0.3-0.5-0.5-0.7-0.8c-8.1,1.9-15.8,3.8-23,5.8c0.2,0.2,0.4,0.5,0.6,0.7c0.3,0.3,0.5,0.6,0.8,0.9
			c0.5,0.6,0.9,1.1,1.4,1.7c0.2,0.3,0.5,0.6,0.7,0.9c0.5,0.6,0.9,1.2,1.4,1.8c0.2,0.2,0.4,0.5,0.6,0.7c0.6,0.8,1.2,1.6,1.8,2.3
			c0,0,0.1,0.1,0.1,0.1c0.6,0.8,1.2,1.6,1.7,2.4c0.1,0.2,0.3,0.4,0.4,0.6c0.4,0.6,0.8,1.1,1.1,1.7c0.2,0.3,0.4,0.5,0.5,0.8
			c0.3,0.5,0.6,0.9,0.9,1.4c0.2,0.3,0.3,0.6,0.5,0.8c0.1,0.2,0.3,0.4,0.4,0.6L136,146.4z"/>
		<path class="st1" d="M31.8,66.3c-1.2-0.7-2.4-1.4-3.5-2c-0.2-0.1-0.3-0.2-0.5-0.3c-1.1-0.6-2.1-1.2-3.2-1.8
			c-0.2-0.1-0.4-0.2-0.7-0.4c-1.1-0.6-2.1-1.2-3.2-1.8c-0.3-0.2-0.6-0.3-0.9-0.5c-1-0.6-2-1.1-3-1.7c-0.3-0.1-0.5-0.3-0.7-0.4
			c-0.9-0.5-1.8-1-2.7-1.5c-0.2-0.1-0.3-0.2-0.5-0.3c-0.9-0.5-1.8-1-2.7-1.5C10,54,9.7,53.9,9.5,53.7c-0.8-0.5-1.7-0.9-2.4-1.3
			c-0.3-0.1-0.5-0.3-0.8-0.4c-0.8-0.4-1.6-0.8-2.3-1.2c0,0-0.1-0.1-0.1-0.1c5.3,4.1,12,9.3,19.4,15.3c0.2,0,0.3,0,0.5,0
			c0.4,0,0.8,0,1.3,0c0.3,0,0.5,0,0.8,0c0.4,0,0.9,0,1.3,0.1c0.3,0,0.6,0,0.8,0.1c0.5,0,0.9,0.1,1.4,0.1c0.3,0,0.5,0,0.8,0.1
			c0.6,0.1,1.1,0.1,1.7,0.2c0.2,0,0.3,0,0.5,0C32.1,66.4,32,66.4,31.8,66.3z"/>
		<path class="st1" d="M55.5,92.9c0.9,0,1.8,0.1,2.7,0.1c0.2,0,0.3,0,0.5,0c0.8,0.1,1.7,0.1,2.6,0.2c0.3,0,0.7,0.1,1,0.1
			c0.7,0.1,1.4,0.1,2.2,0.2c0.4,0,0.8,0.1,1.1,0.1c0.8,0.1,1.5,0.1,2.3,0.2c0.3,0,0.7,0.1,1,0.1c1.1,0.1,2.2,0.2,3.4,0.4
			c0.2,0,0.4,0,0.6,0.1c1,0.1,1.9,0.2,2.9,0.4c0.4,0.1,0.8,0.1,1.2,0.2c0.5,0.1,0.9,0.1,1.4,0.2c-11.8-8-25.2-16.4-39.8-25
			c-4.2-0.7-8.2-1.2-11.7-1.4C36.9,77,46.6,85.1,55.5,92.9z"/>
		<path class="st1" d="M81.6,116.8c7.6-0.5,16-0.8,25.1-0.8c0,0-0.1-0.1-0.1-0.1c-0.9-0.7-1.8-1.4-2.7-2.2c-0.3-0.3-0.7-0.5-1-0.8
			c-0.7-0.5-1.3-1-2-1.5c-0.4-0.3-0.8-0.6-1.2-0.9c-0.6-0.5-1.3-1-1.9-1.4c-0.4-0.3-0.8-0.6-1.3-0.9c-0.6-0.5-1.3-1-1.9-1.4
			c-0.4-0.3-0.9-0.6-1.3-1c-0.7-0.5-1.4-1-2.1-1.5c-0.4-0.3-0.8-0.6-1.2-0.9c-0.8-0.6-1.6-1.2-2.5-1.8c-0.3-0.2-0.6-0.4-0.9-0.7
			c-1.1-0.8-2.2-1.6-3.3-2.3c-9-1.4-17.2-2.4-24.5-2.8C67.1,103.1,74.8,110.2,81.6,116.8z"/>
		<path class="st1" d="M278.8,119.3c-0.1,0-0.1,0-0.2,0c-0.3,0-0.6,0-0.8,0c-0.8,0-1.6-0.1-2.4-0.1c-0.4,0-0.7,0-1.1-0.1
			c-0.7,0-1.5-0.1-2.2-0.1c-0.4,0-0.8,0-1.2,0c-0.8,0-1.5-0.1-2.3-0.1c-0.4,0-0.8,0-1.2,0c-0.8,0-1.6,0-2.4-0.1c-0.4,0-0.7,0-1.1,0
			c-0.9,0-1.8,0-2.7,0c-0.3,0-0.6,0-0.9,0c-2.4,0-4.8,0-7.2,0c-0.6,0.5-1.2,1-1.8,1.5c-0.1,0.1-0.1,0.1-0.2,0.2
			c-0.7,0.6-1.4,1.2-2.1,1.9c-0.2,0.2-0.4,0.4-0.6,0.6c-0.5,0.4-1,0.8-1.4,1.3c-0.3,0.2-0.5,0.5-0.8,0.7c-0.4,0.4-0.8,0.7-1.2,1.1
			c-0.3,0.2-0.5,0.5-0.8,0.7c-0.4,0.4-0.8,0.7-1.1,1.1c-0.3,0.2-0.5,0.5-0.7,0.7c-0.4,0.4-0.8,0.7-1.1,1.1c-0.2,0.2-0.4,0.4-0.7,0.7
			c-0.4,0.4-0.9,0.9-1.3,1.3c-0.1,0.1-0.3,0.3-0.4,0.4c0,0,0,0-0.1,0.1c1.4,0.3,2.8,0.7,4.1,1c0.2,0,0.3,0.1,0.5,0.1
			c0.9,0.2,1.8,0.4,2.7,0.7c1.3,0.3,2.6,0.6,3.9,1c0.6,0.1,1.2,0.3,1.7,0.4c1.2,0.3,2.4,0.6,3.6,0.9c0.5,0.1,1,0.3,1.5,0.4
			c1.3,0.4,2.7,0.7,4,1.1c0.3,0.1,0.5,0.1,0.8,0.2l0,0h0C266.3,132.1,272.2,125.9,278.8,119.3z"/>
		<path class="st1" d="M259.4,140c-7.2-2-14.9-3.9-23-5.8c-0.2,0.3-0.5,0.5-0.7,0.8c-0.2,0.2-0.4,0.4-0.6,0.6
			c-0.4,0.4-0.8,0.9-1.1,1.3c-0.1,0.1-0.2,0.3-0.4,0.4c-0.5,0.6-0.9,1.1-1.4,1.7c-0.1,0.2-0.3,0.3-0.4,0.5c-0.3,0.4-0.6,0.8-0.9,1.2
			c-0.2,0.2-0.3,0.4-0.5,0.6c-0.3,0.3-0.5,0.7-0.7,1c-0.2,0.2-0.3,0.4-0.5,0.7c-0.2,0.3-0.5,0.6-0.7,1c-0.1,0.2-0.3,0.4-0.4,0.6
			c-0.2,0.3-0.4,0.6-0.6,1c-0.1,0.2-0.3,0.4-0.4,0.6c-0.1,0.1-0.1,0.2-0.2,0.3l0.8,0.4l18.7,10.8l0,0l0,0c0.1-0.2,0.3-0.4,0.4-0.6
			c0.2-0.3,0.4-0.6,0.5-0.9c0.3-0.5,0.6-0.9,0.9-1.4c0.2-0.3,0.4-0.6,0.5-0.8c0.4-0.5,0.7-1.1,1.1-1.6c0.2-0.2,0.3-0.4,0.5-0.7
			c0.5-0.8,1.1-1.6,1.7-2.4c0.1-0.1,0.1-0.2,0.2-0.3c0.5-0.7,1.1-1.4,1.6-2.2c0.2-0.3,0.4-0.6,0.7-0.8c0.4-0.5,0.9-1.1,1.3-1.7
			c0.3-0.3,0.5-0.7,0.8-1c0.4-0.5,0.9-1.1,1.3-1.6c0.3-0.3,0.6-0.7,0.9-1.1C259,140.5,259.2,140.3,259.4,140z"/>
		<path class="st1" d="M359.2,50.7c-0.8,0.4-1.7,0.9-2.5,1.4c-0.2,0.1-0.4,0.2-0.6,0.3c-0.8,0.5-1.7,0.9-2.6,1.4
			c-0.2,0.1-0.5,0.2-0.7,0.4c-0.9,0.5-1.9,1-2.9,1.6c-0.1,0.1-0.2,0.1-0.3,0.2c-0.9,0.5-1.9,1.1-2.9,1.6c-0.2,0.1-0.4,0.2-0.6,0.3
			c-1,0.6-2.1,1.2-3.1,1.7c-0.2,0.1-0.5,0.3-0.7,0.4c-1.1,0.6-2.2,1.2-3.3,1.9c-0.2,0.1-0.3,0.2-0.5,0.3c-1.1,0.6-2.2,1.3-3.4,1.9
			c-0.1,0.1-0.3,0.1-0.4,0.2c-1.2,0.7-2.4,1.4-3.6,2c-0.1,0.1-0.3,0.2-0.4,0.3c0.2,0,0.3,0,0.5,0c0.6-0.1,1.2-0.1,1.7-0.2
			c0.3,0,0.5,0,0.8-0.1c0.5,0,0.9-0.1,1.4-0.1c0.3,0,0.6,0,0.8-0.1c0.4,0,0.9-0.1,1.3-0.1c0.3,0,0.5,0,0.8,0c0.4,0,0.9,0,1.3,0
			c0.2,0,0.4,0,0.5,0C347.2,60,353.9,54.7,359.2,50.7C359.2,50.6,359.2,50.6,359.2,50.7z"/>
		<path class="st1" d="M336.3,68.7c-3.6,0.2-7.5,0.7-11.7,1.4c-14.6,8.6-28,17-39.8,25c0.5-0.1,0.9-0.1,1.4-0.2
			c0.4-0.1,0.8-0.1,1.2-0.2c1-0.1,1.9-0.3,2.9-0.4c0.2,0,0.4,0,0.6-0.1c1.1-0.1,2.2-0.3,3.4-0.4c0.3,0,0.7-0.1,1-0.1
			c0.8-0.1,1.6-0.2,2.3-0.2c0.4,0,0.8-0.1,1.1-0.1c0.7-0.1,1.4-0.1,2.2-0.2c0.4,0,0.7-0.1,1-0.1c0.9-0.1,1.7-0.1,2.6-0.2
			c0.2,0,0.3,0,0.5,0c0.9-0.1,1.8-0.1,2.7-0.1C316.4,85.1,326.1,77,336.3,68.7z"/>
		<path class="st1" d="M304.3,95.7c-7.3,0.4-15.5,1.4-24.5,2.8c-1.1,0.8-2.2,1.6-3.3,2.3c-0.3,0.2-0.6,0.4-0.9,0.7
			c-0.8,0.6-1.7,1.2-2.5,1.8c-0.4,0.3-0.8,0.6-1.2,0.9c-0.7,0.5-1.4,1-2.1,1.5c-0.4,0.3-0.9,0.6-1.3,1c-0.7,0.5-1.3,1-1.9,1.4
			c-0.4,0.3-0.8,0.6-1.3,0.9c-0.6,0.5-1.3,1-1.9,1.4c-0.4,0.3-0.8,0.6-1.2,0.9c-0.7,0.5-1.3,1-2,1.5c-0.3,0.3-0.7,0.5-1,0.8
			c-0.9,0.7-1.8,1.5-2.7,2.2c0,0-0.1,0.1-0.1,0.1c9.1,0,17.5,0.3,25.1,0.8C288.2,110.2,295.9,103.1,304.3,95.7z"/>
		<path class="st1" d="M235.4,182.8c-2.7-2.7-5.6-5.6-8.5-8.5c0,0-0.1-0.1-0.1-0.1c-1.5-1.6-3.1-3.2-4.6-4.8c0,0,0,0,0,0
			c-1.1-1.1-2.1-2.2-3.2-3.4c0,0,0,0.1,0,0.1c0,0.2-0.1,0.3-0.1,0.5c-0.2,0.6-0.3,1.2-0.5,1.8c-0.1,0.3-0.1,0.6-0.2,0.8
			c-0.1,0.5-0.3,1.1-0.4,1.6c-0.1,0.3-0.2,0.6-0.2,1c-0.1,0.5-0.3,1.1-0.4,1.6c-0.1,0.3-0.2,0.7-0.2,1c-0.1,0.6-0.2,1.1-0.4,1.7
			c-0.1,0.3-0.1,0.6-0.2,1c-0.1,0.6-0.3,1.3-0.4,1.9c-0.1,0.3-0.1,0.5-0.2,0.8c-0.2,0.9-0.4,1.9-0.5,2.8c0,0.1,0,0.1,0,0.2
			c-0.1,0.8-0.3,1.6-0.4,2.4c0.6,1,1.2,2,1.7,3c0,0,0,0,0,0.1c0.6,1,1.2,2.1,1.8,3.1c0.2,0.3,0.4,0.7,0.6,1c0.4,0.7,0.8,1.4,1.2,2.1
			c0.2,0.4,0.5,0.8,0.7,1.2c0.4,0.6,0.7,1.2,1.1,1.8c0.3,0.4,0.5,0.8,0.8,1.2c0.4,0.6,0.7,1.1,1.1,1.7c0.3,0.4,0.5,0.8,0.8,1.2
			c0.4,0.6,0.7,1.1,1.1,1.7c0.2,0.4,0.5,0.7,0.7,1.1c0.4,0.6,0.8,1.3,1.2,1.9c0.2,0.3,0.4,0.5,0.5,0.8c0,0.1,0.1,0.1,0.1,0.2
			C230.5,198.1,232.9,190,235.4,182.8z"/>
		<path class="st1" d="M245.1,160l-19.5-11.2c0,0.1-0.1,0.2-0.1,0.3c-0.1,0.2-0.2,0.4-0.3,0.6c-0.2,0.3-0.3,0.7-0.5,1
			c-0.1,0.2-0.2,0.5-0.3,0.7c-0.2,0.3-0.3,0.7-0.5,1.1c-0.1,0.2-0.2,0.5-0.3,0.7c-0.2,0.4-0.3,0.8-0.5,1.2c-0.1,0.2-0.2,0.5-0.3,0.7
			c-0.2,0.5-0.4,0.9-0.6,1.4c-0.1,0.2-0.1,0.4-0.2,0.6c-0.3,0.7-0.5,1.4-0.8,2.1c-0.1,0.2-0.1,0.3-0.2,0.5c-0.2,0.5-0.4,1.1-0.6,1.7
			c-0.1,0.3-0.2,0.5-0.3,0.8c-0.1,0.3-0.2,0.7-0.3,1c5.7,6.1,11.2,11.8,16.5,17c0.1-0.3,0.2-0.5,0.3-0.8c0.2-0.4,0.3-0.9,0.5-1.3
			c0.2-0.6,0.5-1.3,0.7-1.9c0.2-0.4,0.3-0.8,0.5-1.2c0.3-0.7,0.5-1.3,0.8-1.9c0.1-0.3,0.3-0.7,0.4-1c0.3-0.8,0.7-1.6,1-2.4
			c0.1-0.1,0.1-0.3,0.2-0.4c0.4-0.9,0.8-1.8,1.2-2.6c0.1-0.3,0.2-0.5,0.4-0.8c0.3-0.6,0.5-1.2,0.8-1.7c0.2-0.3,0.3-0.6,0.5-0.9
			c0.2-0.5,0.5-1,0.7-1.4c0.2-0.3,0.3-0.6,0.5-0.9C244.9,160.4,245,160.2,245.1,160z"/>
		<path class="st1" d="M208.3,279.3c0,0.4,0,0.9,0,1.3c0,0.4,0,0.9,0,1.3c0,0.4,0,0.8,0,1.2c0,0.8,0,1.5,0,2.2c0,0.4,0,0.8,0,1.1
			c0,0.5,0,1,0,1.5c0,0.4,0,0.8,0,1.1c0,0.4,0,0.8,0,1.2c0,0.4,0,0.8,0,1.2c0,0.4,0,0.8,0,1.2c0,0.4,0,0.8,0,1.1c0,0.4,0,0.8,0,1.2
			c0,0.4,0,0.7,0,1c0,0.5,0,0.9,0,1.4c0,0.3,0,0.6,0,0.8c0,0.6,0,1.1,0,1.7c0,0.5,0,1,0,1.4c0,0.4,0,0.7,0,1.1c0,0.3,0,0.6,0,0.9
			c0,0.4,0,0.8,0,1.1c0,0.3,0,0.6,0,0.9c0,0.4,0,0.7,0,1.1c0,0.3,0,0.6,0,0.9c0,0.3,0,0.7,0,1c0,0.3,0,0.5,0,0.8c0,0.5,0,0.9,0,1.3
			c0,0.1,0,0.3,0,0.4c0,0,0,0.1,0,0.1c0.9-6.7,2.1-15.1,3.5-24.5c-0.1-0.1-0.2-0.3-0.2-0.4c-0.2-0.4-0.4-0.8-0.6-1.1
			c-0.1-0.2-0.2-0.5-0.4-0.7c-0.2-0.4-0.4-0.8-0.6-1.2c-0.1-0.2-0.2-0.5-0.4-0.7c-0.2-0.4-0.4-0.8-0.6-1.3c-0.1-0.2-0.2-0.5-0.3-0.7
			c-0.2-0.5-0.5-1.1-0.7-1.6c-0.1-0.1-0.1-0.2-0.2-0.4C208.3,278.8,208.3,279,208.3,279.3z"/>
		<path class="st1" d="M219.6,245.2c-0.4-0.8-0.8-1.6-1.2-2.4c-0.1-0.2-0.2-0.3-0.2-0.5c-0.4-0.7-0.7-1.5-1.1-2.3
			c-0.2-0.3-0.3-0.6-0.5-1c-0.3-0.6-0.6-1.3-0.9-1.9c-0.2-0.3-0.3-0.7-0.5-1c-0.3-0.7-0.6-1.4-1-2.1c-0.1-0.3-0.3-0.6-0.4-0.9
			c-0.4-1-0.9-2-1.3-3.1c-0.1-0.2-0.2-0.4-0.2-0.6c-0.4-0.9-0.8-1.8-1.1-2.7c-0.2-0.4-0.3-0.7-0.4-1.1c-0.2-0.4-0.4-0.9-0.5-1.3
			c-1,14.3-1.6,30-1.7,47c1.5,4,3.1,7.7,4.7,10.8C215.1,269.3,217.3,256.8,219.6,245.2z"/>
		<path class="st1" d="M227.2,210.7c-4.3-6.3-8.7-13.4-13.3-21.3c-0.2,1.2-0.4,2.4-0.5,3.6c-0.1,0.4-0.1,0.8-0.2,1.2
			c-0.1,0.8-0.2,1.7-0.4,2.5c-0.1,0.5-0.1,1-0.2,1.5c-0.1,0.8-0.2,1.6-0.3,2.3c-0.1,0.5-0.1,1.1-0.2,1.6c-0.1,0.8-0.2,1.6-0.3,2.4
			c-0.1,0.5-0.1,1.1-0.2,1.6c-0.1,0.8-0.2,1.7-0.3,2.6c-0.1,0.5-0.1,1-0.2,1.5c-0.1,1-0.2,2-0.3,3.1c0,0.4-0.1,0.7-0.1,1.1
			c-0.1,1.3-0.2,2.7-0.4,4.1c3.3,8.5,6.6,16.1,9.8,22.7C222.6,230,224.9,219.9,227.2,210.7z"/>
	</g>
	<g id="_x32_">
		<path class="st2" d="M80.2,43.6c-0.2-0.2-0.4-0.4-0.6-0.6c-0.6-0.6-1.3-1.3-1.9-1.9c-0.3-0.3-0.6-0.6-0.8-0.8
			c-0.6-0.6-1.1-1.1-1.7-1.7c-0.3-0.3-0.5-0.5-0.8-0.8c-0.6-0.6-1.2-1.3-1.8-1.9c-0.2-0.2-0.3-0.3-0.5-0.5c-0.7-0.8-1.5-1.6-2.2-2.3
			c-0.2-0.2-0.3-0.4-0.5-0.6c-0.5-0.6-1-1.2-1.6-1.7c-0.2-0.3-0.4-0.5-0.7-0.8c-0.5-0.5-0.9-1-1.4-1.6c-0.2-0.2-0.4-0.5-0.6-0.7
			c-0.5-0.6-1-1.2-1.5-1.8c-0.1-0.1-0.2-0.2-0.3-0.3l0,0l0,0c-12.1-6.8-22.8-13.3-31-18.3c12.1,9.9,30.4,24.5,50.5,38.9
			c0,0-0.1-0.1-0.1-0.1C82,45.3,81.1,44.4,80.2,43.6z"/>
		<path class="st2" d="M134,77c-0.1-0.1-0.2-0.2-0.3-0.3c-1.4-1.5-2.7-2.9-4-4.3c-0.4-0.5-0.8-0.9-1.2-1.4c-0.9-1-1.8-2-2.6-2.9
			c-0.5-0.5-1-1.1-1.4-1.6c-0.8-0.9-1.6-1.7-2.3-2.6c-0.5-0.5-1-1.1-1.4-1.6c-0.8-0.9-1.5-1.7-2.2-2.6c-0.4-0.5-0.9-1-1.3-1.5
			c-0.8-0.9-1.6-1.9-2.4-2.8c-0.3-0.4-0.7-0.8-1-1.2c-1.1-1.3-2.1-2.5-3.1-3.7c-1.6-0.8-3.3-1.6-5-2.4c-0.5-0.2-0.9-0.4-1.4-0.7
			c-1.3-0.6-2.6-1.3-3.9-1.9c-0.6-0.3-1.3-0.6-1.9-1c-1.1-0.6-2.3-1.2-3.5-1.8c-0.7-0.4-1.4-0.7-2.1-1.1c-1.1-0.6-2.3-1.2-3.4-1.8
			c-0.7-0.4-1.4-0.7-2.1-1.1c-1.2-0.6-2.4-1.3-3.6-1.9c-0.7-0.4-1.3-0.7-2-1.1c-1.4-0.8-2.8-1.5-4.3-2.3c-0.5-0.3-1-0.5-1.5-0.8
			c-1.9-1-3.7-2-5.6-3.1c7.6,8.5,17.5,18,29.3,28.3c1.9,1.3,3.8,2.5,5.7,3.7c0.6,0.4,1.2,0.8,1.8,1.2c1.3,0.8,2.6,1.6,3.8,2.4
			c0.7,0.4,1.3,0.9,2,1.3c1.2,0.7,2.4,1.5,3.5,2.2c0.6,0.4,1.3,0.8,1.9,1.2c1.3,0.8,2.5,1.5,3.8,2.3c0.5,0.3,1,0.6,1.5,0.9
			c1.7,1,3.4,2,5.1,2.9c0.3,0.1,0.5,0.3,0.8,0.4c1.4,0.8,2.8,1.6,4.2,2.3c0.5,0.3,1.1,0.6,1.6,0.9c0.7,0.4,1.3,0.7,2,1.1
			C136.2,79.4,135.1,78.2,134,77z"/>
		<path class="st2" d="M165.8,70.8c2,6.4,4.1,13,6.3,19.8c0.4,1.3,0.8,2.5,1.3,3.8c2.4,0.4,4.7,0.7,6.8,0.8V72.7v0
			C175.9,72.6,171.1,71.9,165.8,70.8z"/>
		<path class="st2" d="M145.2,64.9c0,0,0.1,0.1,0.1,0.1c1.1,1.9,2.3,3.8,3.4,5.7c0.2,0.3,0.4,0.7,0.6,1c1.1,1.9,2.3,3.8,3.5,5.7
			c0.2,0.4,0.5,0.7,0.7,1.1c1.2,1.9,2.5,3.9,3.8,5.9c0.1,0.2,0.3,0.5,0.5,0.7c1.3,2,2.6,4,3.9,6c0.1,0.1,0.2,0.2,0.2,0.4
			c2.9,1,5.7,1.8,8.4,2.4c-2.7-8.1-5.2-16-7.5-23.6C157.4,68.8,151.5,67.1,145.2,64.9z"/>
		<path class="st2" d="M116.3,53c8.1,9.7,17.6,20.1,28.3,31.2c4.6,2.2,9,4.1,13.2,5.7c-6-9.2-11.6-18.1-16.5-26.4
			C133.6,60.6,125.2,57.1,116.3,53z"/>
		<path class="st2" d="M330.5,7.3c-8.2,5-19,11.5-31,18.3l0,0l0,0c-0.1,0.1-0.2,0.2-0.3,0.3c-0.5,0.6-1,1.2-1.5,1.8
			c-0.2,0.2-0.4,0.5-0.6,0.7c-0.4,0.5-0.9,1-1.4,1.6c-0.2,0.2-0.4,0.5-0.7,0.7c-0.5,0.6-1,1.2-1.6,1.7c-0.2,0.2-0.3,0.4-0.5,0.6
			c-0.7,0.8-1.4,1.5-2.2,2.3c-0.1,0.2-0.3,0.3-0.5,0.5c-0.6,0.6-1.2,1.3-1.8,1.9c-0.3,0.3-0.5,0.5-0.8,0.8c-0.5,0.6-1.1,1.1-1.7,1.7
			c-0.3,0.3-0.6,0.6-0.8,0.8c-0.6,0.6-1.2,1.2-1.9,1.8c-0.2,0.2-0.4,0.4-0.7,0.7c-0.9,0.8-1.7,1.7-2.6,2.5c0,0-0.1,0.1-0.1,0.1
			C300.1,31.8,318.4,17.3,330.5,7.3z"/>
		<path class="st2" d="M249.3,54.1c-0.3,0.4-0.6,0.7-0.9,1.1c-0.8,1-1.6,1.9-2.5,2.9c-0.4,0.5-0.8,1-1.3,1.5
			c-0.8,0.9-1.5,1.7-2.3,2.6c-0.5,0.5-0.9,1-1.4,1.6c-0.8,0.9-1.6,1.8-2.4,2.7c-0.5,0.5-0.9,1-1.4,1.5c-0.9,1-1.8,2-2.7,3
			c-0.4,0.4-0.8,0.9-1.2,1.3c-1.3,1.4-2.7,2.9-4,4.3c-0.1,0.1-0.2,0.2-0.3,0.3c-1.1,1.2-2.3,2.4-3.4,3.7c0.7-0.3,1.3-0.7,2-1
			c0.5-0.3,1.1-0.6,1.6-0.9c1.4-0.7,2.7-1.5,4.1-2.3c0.3-0.2,0.5-0.3,0.8-0.4c1.7-0.9,3.4-1.9,5.1-2.9c0.5-0.3,1-0.6,1.5-0.9
			c1.2-0.7,2.5-1.5,3.8-2.3c0.6-0.4,1.3-0.8,1.9-1.2c1.2-0.7,2.4-1.5,3.6-2.2c0.7-0.4,1.3-0.8,2-1.3c1.3-0.8,2.5-1.6,3.8-2.5
			c0.6-0.4,1.2-0.8,1.8-1.2c1.9-1.2,3.8-2.5,5.7-3.7C275.2,47.5,285,38,292.6,29.5c-1.9,1-3.8,2.1-5.6,3.1c-0.5,0.3-1,0.5-1.5,0.8
			c-1.4,0.8-2.8,1.5-4.2,2.3c-0.7,0.4-1.4,0.7-2.1,1.1c-1.2,0.6-2.4,1.3-3.5,1.9c-0.7,0.4-1.5,0.8-2.2,1.2c-1.1,0.6-2.3,1.2-3.4,1.7
			c-0.7,0.4-1.4,0.7-2.2,1.1c-1.1,0.6-2.3,1.2-3.4,1.7c-0.7,0.3-1.3,0.7-2,1c-1.3,0.6-2.6,1.3-3.8,1.9c-0.5,0.2-1,0.5-1.4,0.7
			c-1.7,0.8-3.3,1.6-5,2.4C251.3,51.6,250.3,52.9,249.3,54.1z"/>
		<path class="st2" d="M182.8,72.7L182.8,72.7v22.5c2.1-0.1,4.4-0.3,6.8-0.8c0.4-1.3,0.8-2.5,1.3-3.8c2.2-6.7,4.3-13.4,6.3-19.8
			C191.9,71.9,187.1,72.6,182.8,72.7z"/>
		<path class="st2" d="M200.2,70.1c-2.3,7.6-4.8,15.5-7.5,23.6c2.6-0.6,5.4-1.4,8.4-2.4c0.1-0.1,0.2-0.2,0.2-0.4c1.3-2,2.6-4,3.9-6
			c0.1-0.2,0.3-0.5,0.5-0.7c1.3-2,2.5-3.9,3.8-5.9c0.2-0.4,0.5-0.7,0.7-1.1c1.2-1.9,2.4-3.8,3.5-5.7c0.2-0.3,0.4-0.7,0.6-1
			c1.2-1.9,2.3-3.8,3.4-5.7c0,0,0.1-0.1,0.1-0.1C211.4,67.1,205.6,68.8,200.2,70.1z"/>
		<path class="st2" d="M221.7,63.4c-4.9,8.4-10.4,17.2-16.5,26.4c4.1-1.6,8.5-3.5,13.2-5.7c10.7-11.1,20.2-21.5,28.3-31.2
			C237.8,57.1,229.4,60.6,221.7,63.4z"/>
		<path class="st2" d="M164.5,248.5c-0.1,0.3-0.1,0.6-0.2,0.8c-0.2,0.9-0.5,1.7-0.7,2.6c-0.1,0.4-0.2,0.7-0.3,1.1
			c-0.2,0.8-0.4,1.5-0.6,2.3c-0.1,0.4-0.2,0.7-0.3,1.1c-0.2,0.9-0.5,1.7-0.7,2.6c-0.1,0.2-0.1,0.4-0.2,0.6c-0.3,1-0.6,2.1-0.9,3
			c-0.1,0.3-0.2,0.5-0.2,0.7c-0.2,0.7-0.5,1.5-0.7,2.2c-0.1,0.3-0.2,0.7-0.3,1c-0.2,0.6-0.4,1.3-0.7,1.9c-0.1,0.3-0.2,0.6-0.3,0.9
			c-0.2,0.7-0.5,1.4-0.8,2.1c-0.1,0.2-0.1,0.3-0.2,0.5c0.1,13.9-0.1,26.4-0.4,36c2.6-15.4,6-38.5,8.4-63.1c0,0,0,0.1,0,0.1
			C165.1,246.1,164.8,247.3,164.5,248.5z"/>
		<path class="st2" d="M167.1,224.4c0.1-1.8,0.2-3.6,0.3-5.4c0-0.3,0-0.7,0.1-1c0.1-1.8,0.2-3.5,0.3-5.2c0-0.3,0-0.6,0-1
			c0.1-1.7,0.1-3.4,0.2-5.1c0-0.1,0-0.1,0-0.2c0.1-1.7,0.1-3.4,0.1-5c0-0.3,0-0.6,0-1c0-1.6,0-3.2,0.1-4.7c0-0.3,0-0.5,0-0.8
			c0-1.5,0-3,0-4.4c0-0.1,0-0.3,0-0.4c0-1.5,0-3-0.1-4.5c0-0.3,0-0.6,0-0.9c0-1.4-0.1-2.8-0.1-4.2c0-0.1,0-0.1,0-0.2
			c-0.5,1.6-1,3.2-1.4,4.8c0,0.1-0.1,0.3-0.1,0.4c-0.6,1.9-1.2,3.8-1.7,5.6c-0.2,0.6-0.4,1.1-0.5,1.7c-0.4,1.3-0.8,2.5-1.2,3.8
			c-0.2,0.7-0.4,1.3-0.7,2c-0.4,1.1-0.7,2.2-1.1,3.3c-0.2,0.7-0.5,1.3-0.7,2c-0.4,1.1-0.8,2.2-1.1,3.3c-0.2,0.6-0.4,1.2-0.6,1.8
			c-0.4,1.2-0.9,2.4-1.3,3.6c-0.2,0.4-0.3,0.9-0.5,1.3c-0.6,1.5-1.1,3.1-1.7,4.6c0.1,1.8,0.3,3.7,0.4,5.5c0,0.5,0.1,1,0.1,1.5
			c0.1,1.4,0.2,2.9,0.3,4.3c0,0.7,0.1,1.4,0.1,2.1c0.1,1.3,0.1,2.6,0.2,3.9c0,0.8,0.1,1.6,0.1,2.4c0.1,1.3,0.1,2.6,0.2,3.9
			c0,0.8,0.1,1.6,0.1,2.4c0.1,1.4,0.1,2.7,0.2,4.1c0,0.8,0.1,1.5,0.1,2.3c0.1,1.6,0.1,3.3,0.1,4.9c0,0.5,0,1,0,1.6
			c0.1,2.1,0.1,4.3,0.1,6.4C160.8,253.2,164.1,239.9,167.1,224.4C167.1,224.4,167.1,224.4,167.1,224.4z"/>
		<path class="st2" d="M145.3,160.8c4.6-5,9.4-10.2,14.1-15.5c0.8-0.9,1.7-1.9,2.5-2.8c-0.8-2.3-1.8-4.4-2.7-6.3l-19.5,11.2l0,0l0,0
			C141.7,151.1,143.6,155.6,145.3,160.8z"/>
		<path class="st2" d="M150.4,181.5c0-0.1,0.1-0.1,0.1-0.2c0.2-0.3,0.4-0.7,0.6-1c0.4-0.8,0.9-1.6,1.3-2.4c0.3-0.5,0.5-1,0.8-1.4
			c0.4-0.7,0.8-1.4,1.2-2.1c0.3-0.5,0.6-1,0.8-1.6c0.4-0.7,0.8-1.4,1.1-2.1c0.3-0.5,0.6-1.1,0.8-1.6c0.4-0.7,0.8-1.4,1.1-2.2
			c0.3-0.5,0.6-1.1,0.8-1.6c0.4-0.8,0.8-1.5,1.2-2.3c0.3-0.5,0.5-1,0.8-1.5c0.5-0.9,1-1.9,1.4-2.8c0.2-0.4,0.4-0.7,0.5-1.1
			c0.6-1.2,1.2-2.5,1.8-3.7c-0.6-3-1.3-5.8-2.1-8.4c-5.7,6.4-11.3,12.6-16.7,18.3C147.7,169,149.2,174.9,150.4,181.5z"/>
		<path class="st2" d="M154.6,212.5c4.3-11.8,8.6-25.3,12.9-40.1c-0.4-5.1-1-9.9-1.7-14.2c-4.9,9.8-9.9,19-14.7,27.5
			C152.5,193.7,153.7,202.7,154.6,212.5z"/>
		<path class="st2" d="M7.9,49.8c8.5,4.6,19.4,10.7,31.4,17.7h0l0,0c0.2,0,0.3,0.1,0.5,0.1c0.7,0.1,1.5,0.3,2.2,0.4
			c0.3,0.1,0.6,0.1,1,0.2c0.7,0.1,1.3,0.3,2,0.4c0.3,0.1,0.7,0.1,1,0.2c0.7,0.2,1.5,0.3,2.2,0.5c0.3,0.1,0.5,0.1,0.8,0.2
			c1,0.2,2,0.5,3.1,0.7c0.2,0.1,0.5,0.1,0.7,0.2c0.8,0.2,1.7,0.4,2.5,0.6c0.4,0.1,0.7,0.2,1.1,0.3c0.7,0.2,1.5,0.4,2.3,0.6
			c0.4,0.1,0.8,0.2,1.1,0.3c0.8,0.2,1.7,0.5,2.6,0.7c0.3,0.1,0.6,0.2,0.9,0.2c1.2,0.3,2.3,0.7,3.5,1c0,0,0.1,0,0.1,0
			C44.3,63.9,22.6,55.3,7.9,49.8z"/>
		<path class="st2" d="M89.1,96.8c0.4,0.1,0.8,0.1,1.2,0.2c1.3,0.2,2.6,0.5,3.9,0.7c0.6,0.1,1.2,0.2,1.8,0.3
			c1.2,0.2,2.3,0.4,3.5,0.7c0.7,0.1,1.3,0.3,2,0.4c1.2,0.2,2.4,0.5,3.6,0.7c0.7,0.1,1.3,0.3,2,0.4c1.3,0.3,2.7,0.6,4,0.9
			c0.5,0.1,1.1,0.2,1.6,0.4c1.9,0.4,3.8,0.9,5.8,1.3c0.1,0,0.2,0,0.3,0.1c1.6,0.4,3.3,0.8,5,1.2c-0.1,0-0.1-0.1-0.2-0.1
			c-1.2-0.7-2.3-1.5-3.6-2.2c-0.3-0.2-0.5-0.3-0.8-0.5c-1.2-0.8-2.5-1.5-3.8-2.3c-0.1-0.1-0.2-0.1-0.4-0.2c-1.2-0.7-2.5-1.5-3.8-2.2
			c-0.2-0.1-0.5-0.3-0.7-0.4c-1.3-0.8-2.7-1.5-4.1-2.3c-0.3-0.2-0.6-0.3-0.9-0.5c-1.4-0.8-2.9-1.6-4.4-2.4c-0.1,0-0.1-0.1-0.2-0.1
			c-1.4-0.8-2.9-1.6-4.4-2.3c-0.3-0.2-0.6-0.3-0.9-0.5c-1.5-0.8-3-1.6-4.6-2.4c-0.3-0.2-0.6-0.3-0.9-0.5c-1.6-0.8-3.2-1.6-4.9-2.4
			c0,0,0,0-0.1,0c-14.9-5.1-28.1-8.9-39.2-11.3c1.8,1.1,3.7,2.2,5.5,3.3c0.5,0.3,1,0.6,1.5,0.9c1.4,0.8,2.7,1.7,4,2.5
			c0.7,0.4,1.3,0.8,2,1.2c1.1,0.7,2.3,1.4,3.4,2.1c0.7,0.4,1.4,0.9,2.1,1.3c1.1,0.7,2.1,1.4,3.2,2c0.7,0.4,1.4,0.9,2,1.3
			c1.1,0.7,2.1,1.4,3.2,2.1c0.6,0.4,1.2,0.8,1.8,1.2c1.2,0.8,2.4,1.6,3.6,2.4c0.4,0.3,0.8,0.6,1.2,0.8c1.5,1,3.1,2.1,4.6,3.1
			C85.9,96.3,87.5,96.5,89.1,96.8z"/>
		<path class="st2" d="M138.4,145.1l19.5-11.2c-1.1-1.8-2.5-3.6-4.1-5.5c-1.2,0.2-2.3,0.5-3.5,0.7c-7.1,1.5-14,3-20.7,4.5
			C133.2,137.6,136.1,141.5,138.4,145.1z"/>
		<path class="st2" d="M127.4,131.3c7.7-1.8,15.9-3.6,24.2-5.3c-1.8-2-3.9-4-6.2-6c-1.4-0.1-2.8-0.2-4.2-0.2c-0.2,0-0.4,0-0.6,0
			c-1.3-0.1-2.5-0.1-3.7-0.2c-0.5,0-0.9,0-1.4-0.1c-1,0-2-0.1-2.9-0.1c-0.5,0-1.1,0-1.6-0.1c-0.9,0-1.8-0.1-2.7-0.1
			c-0.6,0-1.1,0-1.7-0.1c-0.9,0-1.7-0.1-2.6-0.1c-0.5,0-1.1,0-1.6,0c-0.9,0-1.7,0-2.5-0.1c-0.5,0-1,0-1.6,0c-0.9,0-1.8,0-2.7,0
			c-0.4,0-0.9,0-1.3,0c-0.1,0-0.2,0-0.2,0C119.2,123.1,123.7,127.3,127.4,131.3z"/>
		<path class="st2" d="M110.9,116c9.7,0.1,20.2,0.4,31.1,1c-3.4-2.8-7.3-5.7-11.5-8.6c-14.9-3.8-28.8-6.8-41.2-8.9
			C97.4,105.3,104.6,110.8,110.9,116z"/>
		<path class="st2" d="M299.8,73.1c0.3-0.1,0.6-0.2,0.9-0.2c0.8-0.2,1.7-0.5,2.5-0.7c0.4-0.1,0.8-0.2,1.2-0.3
			c0.8-0.2,1.5-0.4,2.2-0.6c0.4-0.1,0.7-0.2,1.1-0.3c0.8-0.2,1.7-0.4,2.5-0.6c0.2-0.1,0.5-0.1,0.7-0.2c1-0.2,2.1-0.5,3.1-0.7
			c0.3-0.1,0.5-0.1,0.8-0.2c0.7-0.2,1.5-0.3,2.2-0.5c0.3-0.1,0.7-0.1,1-0.2c0.7-0.1,1.3-0.3,2-0.4c0.3-0.1,0.7-0.1,1-0.2
			c0.7-0.1,1.5-0.3,2.2-0.4c0.2,0,0.3-0.1,0.5-0.1l0,0h0c11.9-7,22.9-13.1,31.4-17.7c-14.6,5.5-36.4,14-58.9,24.3c0,0,0.1,0,0.1,0
			C297.5,73.7,298.6,73.4,299.8,73.1z"/>
		<path class="st2" d="M316.9,71.6c-11.1,2.4-24.3,6.1-39.2,11.3c0,0,0,0-0.1,0c-1.6,0.8-3.3,1.6-4.9,2.4c-0.3,0.2-0.6,0.3-0.9,0.5
			c-1.6,0.8-3.1,1.6-4.6,2.4c-0.3,0.2-0.6,0.3-0.9,0.5c-1.5,0.8-3,1.6-4.4,2.3c-0.1,0-0.1,0.1-0.2,0.1c-1.5,0.8-2.9,1.6-4.4,2.4
			c-0.3,0.2-0.6,0.3-0.9,0.5c-1.4,0.8-2.8,1.5-4.1,2.3c-0.2,0.1-0.5,0.3-0.7,0.4c-1.3,0.7-2.6,1.5-3.8,2.2c-0.1,0.1-0.2,0.1-0.4,0.2
			c-1.3,0.8-2.6,1.5-3.8,2.3c-0.3,0.2-0.5,0.3-0.8,0.5c-1.2,0.7-2.4,1.5-3.6,2.2c-0.1,0-0.1,0.1-0.2,0.1c1.7-0.4,3.3-0.8,5-1.2
			c0.1,0,0.2,0,0.3-0.1c2-0.5,3.9-0.9,5.8-1.3c0.6-0.1,1.1-0.2,1.6-0.4c1.3-0.3,2.7-0.6,4-0.9c0.7-0.1,1.3-0.3,2-0.4
			c1.2-0.2,2.4-0.5,3.6-0.7c0.7-0.1,1.3-0.3,2-0.4c1.2-0.2,2.3-0.5,3.5-0.7c0.6-0.1,1.2-0.2,1.8-0.3c1.3-0.2,2.6-0.5,3.9-0.7
			c0.4-0.1,0.8-0.1,1.2-0.2c1.6-0.3,3.2-0.6,4.8-0.8c1.5-1,3-2.1,4.6-3.1c0.4-0.3,0.8-0.5,1.2-0.8c1.2-0.8,2.4-1.6,3.6-2.4
			c0.6-0.4,1.2-0.8,1.8-1.2c1.1-0.7,2.1-1.4,3.2-2.1c0.7-0.4,1.4-0.9,2-1.3c1.1-0.7,2.1-1.4,3.2-2c0.7-0.4,1.4-0.9,2.1-1.3
			c1.1-0.7,2.3-1.4,3.4-2.1c0.7-0.4,1.3-0.8,2-1.2c1.3-0.8,2.7-1.6,4-2.5c0.5-0.3,1-0.6,1.5-0.9C313.2,73.8,315,72.7,316.9,71.6z"/>
		<path class="st2" d="M233.4,133.5c-6.7-1.5-13.6-3.1-20.7-4.5c-1.2-0.2-2.3-0.5-3.5-0.7c-1.6,1.9-3,3.7-4.1,5.5l3.1,1.8l16.4,9.4
			C226.8,141.5,229.8,137.6,233.4,133.5z"/>
		<path class="st2" d="M248.9,118.7c-0.1,0-0.2,0-0.2,0c-0.4,0-0.9,0-1.3,0c-0.9,0-1.8,0-2.7,0c-0.5,0-1,0-1.6,0
			c-0.8,0-1.7,0-2.5,0.1c-0.5,0-1.1,0-1.6,0c-0.8,0-1.7,0.1-2.6,0.1c-0.6,0-1.1,0-1.7,0.1c-0.9,0-1.8,0.1-2.7,0.1
			c-0.5,0-1.1,0-1.6,0.1c-1,0-1.9,0.1-2.9,0.1c-0.5,0-0.9,0-1.4,0.1c-1.2,0.1-2.5,0.1-3.7,0.2c-0.2,0-0.4,0-0.6,0
			c-1.4,0.1-2.8,0.2-4.2,0.2c-2.3,2-4.4,4.1-6.2,6c8.4,1.7,16.5,3.5,24.2,5.3C239.3,127.3,243.8,123.1,248.9,118.7z"/>
		<path class="st2" d="M273.6,99.6c-12.4,2.2-26.2,5.2-41.2,8.9c-4.2,2.9-8.1,5.8-11.5,8.6c11-0.6,21.4-1,31.1-1
			C258.4,110.8,265.6,105.3,273.6,99.6z"/>
		<path class="st2" d="M206,307.9c-0.3-9.6-0.5-22.2-0.4-36c-0.1-0.2-0.1-0.3-0.2-0.5c-0.3-0.7-0.5-1.4-0.8-2.1
			c-0.1-0.3-0.2-0.6-0.3-0.9c-0.2-0.6-0.4-1.3-0.7-1.9c-0.1-0.3-0.2-0.7-0.3-1c-0.2-0.7-0.5-1.4-0.7-2.2c-0.1-0.3-0.2-0.5-0.2-0.8
			c-0.3-1-0.6-2-0.9-3c-0.1-0.2-0.1-0.4-0.2-0.7c-0.2-0.8-0.5-1.7-0.7-2.5c-0.1-0.4-0.2-0.7-0.3-1.1c-0.2-0.7-0.4-1.5-0.6-2.3
			c-0.1-0.4-0.2-0.8-0.3-1.1c-0.2-0.9-0.5-1.7-0.7-2.6c-0.1-0.3-0.1-0.6-0.2-0.8c-0.3-1.2-0.6-2.4-0.9-3.6c0,0,0-0.1,0-0.1
			C200,269.4,203.5,292.5,206,307.9z"/>
		<path class="st2" d="M206.1,214.2c-0.2-0.4-0.3-0.9-0.5-1.3c-0.4-1.2-0.9-2.4-1.3-3.6c-0.2-0.6-0.4-1.2-0.6-1.8
			c-0.4-1.1-0.8-2.2-1.1-3.3c-0.2-0.7-0.5-1.3-0.7-2c-0.4-1.1-0.7-2.2-1.1-3.3c-0.2-0.7-0.4-1.3-0.7-2c-0.4-1.2-0.8-2.5-1.2-3.8
			c-0.2-0.6-0.4-1.1-0.5-1.7c-0.6-1.9-1.2-3.7-1.7-5.6c0-0.1-0.1-0.3-0.1-0.4c-0.5-1.6-1-3.2-1.4-4.8c0,0.1,0,0.1,0,0.2
			c-0.1,1.4-0.1,2.8-0.1,4.2c0,0.3,0,0.6,0,0.9c0,1.5-0.1,2.9-0.1,4.5c0,0.1,0,0.3,0,0.4c0,1.5,0,2.9,0,4.4c0,0.3,0,0.5,0,0.8
			c0,1.5,0,3.1,0.1,4.7c0,0.3,0,0.6,0,1c0,1.7,0.1,3.3,0.1,5c0,0.1,0,0.1,0,0.2c0.1,1.7,0.1,3.4,0.2,5.1c0,0.3,0,0.6,0,1
			c0.1,1.7,0.2,3.4,0.3,5.2c0,0.3,0,0.7,0.1,1c0.1,1.8,0.2,3.6,0.3,5.4c0,0,0,0.1,0,0.1c3,15.5,6.3,28.7,9.9,39.6
			c0-2.2,0.1-4.3,0.1-6.4c0-0.5,0-1,0-1.6c0-1.6,0.1-3.3,0.1-4.9c0-0.8,0.1-1.5,0.1-2.3c0-1.4,0.1-2.7,0.2-4.1
			c0-0.8,0.1-1.6,0.1-2.4c0.1-1.3,0.1-2.6,0.2-3.9c0-0.8,0.1-1.6,0.1-2.4c0.1-1.3,0.1-2.6,0.2-3.9c0-0.7,0.1-1.4,0.1-2.1
			c0.1-1.5,0.2-2.9,0.3-4.3c0-0.5,0.1-1,0.1-1.5c0.1-1.9,0.3-3.7,0.4-5.5C207.3,217.2,206.7,215.7,206.1,214.2z"/>
		<path class="st2" d="M223.3,147.4l-19.5-11.2c-1,1.9-1.9,4-2.7,6.3c0.8,0.9,1.7,1.9,2.5,2.8c4.8,5.4,9.5,10.6,14.1,15.5
			C219.4,155.6,221.3,151.1,223.3,147.4z"/>
		<path class="st2" d="M216.8,163.7c-5.4-5.8-11-11.9-16.7-18.3c-0.8,2.6-1.5,5.4-2.1,8.4c0.6,1.2,1.2,2.5,1.8,3.7
			c0.2,0.4,0.4,0.7,0.5,1.1c0.5,1,1,1.9,1.4,2.8c0.3,0.5,0.5,1,0.8,1.5c0.4,0.8,0.8,1.5,1.2,2.3c0.3,0.5,0.6,1.1,0.8,1.6
			c0.4,0.7,0.8,1.4,1.1,2.2c0.3,0.5,0.6,1.1,0.8,1.6c0.4,0.7,0.8,1.4,1.1,2.1c0.3,0.5,0.6,1,0.8,1.6c0.4,0.7,0.8,1.4,1.2,2.1
			c0.3,0.5,0.5,1,0.8,1.4c0.5,0.8,0.9,1.6,1.3,2.4c0.2,0.3,0.4,0.7,0.6,1c0,0.1,0.1,0.1,0.1,0.2C213.8,174.9,215.2,169,216.8,163.7z
			"/>
		<path class="st2" d="M211.8,185.7c-4.8-8.4-9.7-17.7-14.7-27.5c-0.7,4.3-1.3,9.1-1.7,14.2c4.2,14.8,8.5,28.3,12.9,40.1
			C209.3,202.7,210.5,193.7,211.8,185.7z"/>
	</g>
	<g id="_x31_">
		<path class="st3" d="M171.3,96.7L171.3,96.7L171.3,96.7c-0.2-0.1-0.5-0.1-0.7-0.2c-0.7-0.2-1.4-0.3-2.1-0.5
			c-0.4-0.1-0.7-0.2-1.1-0.3c-0.8-0.2-1.5-0.4-2.3-0.6c-0.2-0.1-0.5-0.1-0.7-0.2c0,0,0,0.1,0.1,0.1c0.6,0.9,1.1,1.7,1.7,2.5
			c0,0.1,0.1,0.1,0.1,0.2c0.5,0.8,1.1,1.6,1.6,2.4c0.1,0.1,0.1,0.2,0.2,0.3c0.5,0.8,1,1.5,1.5,2.2c0.1,0.1,0.1,0.2,0.2,0.3
			c0.5,0.7,1,1.4,1.5,2.1c0.1,0.1,0.1,0.2,0.2,0.3c0.5,0.7,1,1.4,1.4,2c0,0.1,0.1,0.1,0.1,0.2c1,1.4,1.9,2.7,2.8,3.9c0,0,0,0,0,0
			c0.4,0.6,0.9,1.2,1.3,1.8c0,0,0,0,0,0C175.5,108.9,173.5,103.3,171.3,96.7z"/>
		<path class="st3" d="M160.2,93.6L160.2,93.6L160.2,93.6c-1.1-0.4-2.2-0.8-3.3-1.2c-0.3-0.1-0.5-0.2-0.8-0.3
			c-1.2-0.5-2.5-1-3.8-1.5c-0.1-0.1-0.2-0.1-0.4-0.2c-0.7-0.3-1.4-0.6-2.2-0.9c0,0,0.1,0.1,0.1,0.1c1,1,2,2,3,3
			c0.1,0.1,0.3,0.3,0.4,0.4c1,1,1.9,1.9,2.8,2.8c0.1,0.1,0.3,0.3,0.4,0.4c0.9,0.9,1.8,1.8,2.7,2.7c0.1,0.1,0.3,0.2,0.4,0.4
			c0.9,0.9,1.8,1.8,2.7,2.6c0,0,0.1,0.1,0.1,0.1c0.9,0.8,1.7,1.6,2.5,2.4c0.1,0.1,0.2,0.2,0.3,0.3c0.8,0.8,1.5,1.5,2.3,2.2
			c0.2,0.2,0.3,0.3,0.5,0.5c0.7,0.7,1.4,1.3,2,1.9c0.2,0.2,0.4,0.4,0.6,0.5c0.6,0.6,1.2,1.1,1.8,1.7c0.1,0.1,0.1,0.1,0.2,0.2
			C169.2,106.9,164.9,100.7,160.2,93.6z"/>
		<path class="st3" d="M166.7,109.8c-6.6-6.2-14.9-14.4-23.7-23.4l0,0h0c-8.3-4-17.3-9-27.2-15C134.8,86.8,153.9,100.8,166.7,109.8z
			"/>
		<path class="st3" d="M174.3,97.3c2.3,6.8,4.4,12.6,5.9,16.8V97.9v0c-0.1,0-0.2,0-0.4,0c-0.6,0-1.3-0.1-2-0.1c-0.2,0-0.4,0-0.7-0.1
			c-0.9-0.1-1.8-0.2-2.8-0.4C174.4,97.3,174.3,97.3,174.3,97.3z"/>
		<path class="st3" d="M197.9,95.1c-0.8,0.2-1.5,0.4-2.3,0.6c-0.4,0.1-0.8,0.2-1.1,0.3c-0.7,0.2-1.4,0.3-2.1,0.5
			c-0.2,0-0.5,0.1-0.7,0.2l0,0l0,0c-2.2,6.5-4.2,12.2-5.7,16.5c0-0.1,0.1-0.1,0.1-0.2c0.4-0.5,0.7-1,1.1-1.5
			c0.1-0.1,0.1-0.2,0.2-0.3c0.4-0.6,0.8-1.2,1.2-1.8c0,0,0,0,0,0c0.4-0.6,0.9-1.3,1.3-1.9c0.1-0.1,0.1-0.2,0.2-0.3
			c0.4-0.6,0.9-1.3,1.4-1.9c0.1-0.1,0.2-0.2,0.2-0.3c0.5-0.7,0.9-1.4,1.4-2.1c0.1-0.1,0.2-0.2,0.2-0.3c0.5-0.7,1-1.5,1.5-2.2
			c0.1-0.1,0.1-0.2,0.2-0.3c0.5-0.8,1.1-1.6,1.6-2.4c0.1-0.1,0.1-0.2,0.2-0.2c0.5-0.8,1.1-1.6,1.7-2.5c0,0,0-0.1,0.1-0.1
			C198.4,95,198.2,95.1,197.9,95.1z"/>
		<path class="st3" d="M211,90.4c-0.1,0.1-0.2,0.1-0.4,0.2c-1.3,0.5-2.5,1-3.8,1.5c-0.3,0.1-0.5,0.2-0.8,0.3
			c-1.1,0.4-2.2,0.8-3.3,1.2l0,0h0c-4.7,7.1-9,13.3-12.4,18.1c0,0,0.1-0.1,0.1-0.1c0.6-0.6,1.3-1.2,2-1.9c0.1-0.1,0.2-0.2,0.4-0.4
			c0.7-0.7,1.4-1.3,2.2-2c0.1-0.1,0.3-0.3,0.4-0.4c0.8-0.7,1.5-1.5,2.4-2.2c0.1-0.1,0.2-0.2,0.3-0.3c0.8-0.8,1.7-1.6,2.6-2.5
			c0,0,0.1-0.1,0.1-0.1c0.9-0.9,1.8-1.7,2.7-2.6c0.1-0.1,0.2-0.2,0.3-0.3c0.9-0.9,1.8-1.8,2.7-2.7c0.1-0.1,0.3-0.3,0.4-0.4
			c0.9-0.9,1.9-1.9,2.8-2.8c0.1-0.1,0.3-0.3,0.4-0.4c1-1,2-2,3-3c0,0,0.1-0.1,0.1-0.1C212.4,89.8,211.7,90.1,211,90.4z"/>
		<path class="st3" d="M220,86.4L220,86.4L220,86.4c-8.8,9.1-17.2,17.2-23.7,23.4c12.8-9.1,31.9-23,50.9-38.5
			C237.3,77.4,228.3,82.4,220,86.4z"/>
		<path class="st3" d="M182.8,97.9v16.2c1.5-4.2,3.5-10,5.9-16.8c0,0-0.1,0-0.1,0c-0.9,0.1-1.9,0.3-2.8,0.4c-0.2,0-0.4,0-0.7,0.1
			c-0.7,0.1-1.3,0.1-2,0.1C183.1,97.8,182.9,97.8,182.8,97.9L182.8,97.9z"/>
		<path class="st3" d="M165,143L165,143L165,143c0.2,0.6,0.4,1.2,0.6,1.8c0,0.1,0.1,0.2,0.1,0.3c0.2,0.7,0.4,1.5,0.6,2.3
			c0,0.2,0.1,0.3,0.1,0.4c0.2,0.7,0.4,1.4,0.5,2.1c0,0,0-0.1,0.1-0.1c0.5-0.9,0.9-1.8,1.3-2.7c0-0.1,0.1-0.1,0.1-0.2
			c0.4-0.9,0.8-1.8,1.3-2.6c0.1-0.1,0.1-0.2,0.2-0.3c0.4-0.8,0.8-1.7,1.2-2.5c0-0.1,0.1-0.2,0.1-0.3c0.4-0.8,0.8-1.6,1.1-2.4
			c0-0.1,0.1-0.2,0.1-0.3c0.4-0.8,0.7-1.5,1.1-2.3c0,0,0-0.1,0.1-0.1c1.1-2.4,2.1-4.5,2.9-6.4C173.4,133.3,169.5,137.9,165,143z"/>
		<path class="st3" d="M167.8,154.2L167.8,154.2L167.8,154.2c0,0.2,0.1,0.4,0.1,0.5c0.1,0.5,0.2,1.1,0.3,1.7
			c0.1,0.3,0.1,0.6,0.2,0.9c0.1,0.5,0.2,1.1,0.3,1.6c0,0.3,0.1,0.6,0.1,0.9c0.1,0.6,0.2,1.3,0.3,1.9c0,0.2,0.1,0.5,0.1,0.7
			c0.1,0.9,0.2,1.8,0.3,2.7c0,0,0,0.1,0,0.1c0-0.1,0-0.2,0.1-0.3c0.1-0.4,0.2-0.8,0.3-1.2c0.1-0.4,0.2-0.8,0.3-1.2
			c0.1-0.4,0.2-0.8,0.3-1.2c0.1-0.4,0.2-0.8,0.3-1.2c0.1-0.4,0.2-0.7,0.3-1.1c0.1-0.4,0.2-0.9,0.3-1.3c0.1-0.3,0.2-0.7,0.3-1
			c0.1-0.4,0.2-0.9,0.3-1.3c0.1-0.3,0.2-0.6,0.2-0.9c0.1-0.5,0.2-0.9,0.4-1.4c0.1-0.3,0.1-0.5,0.2-0.8c0.1-0.6,0.3-1.1,0.4-1.7
			c0-0.2,0.1-0.3,0.1-0.5c0.4-1.4,0.7-2.8,1.1-4.2c0,0,0-0.1,0-0.1c0.2-0.6,0.3-1.3,0.5-1.9c0-0.1,0.1-0.3,0.1-0.4
			c0.1-0.5,0.2-1,0.4-1.5c0-0.2,0.1-0.3,0.1-0.5c0.1-0.5,0.2-0.9,0.3-1.4c0-0.2,0.1-0.4,0.1-0.5c0.1-0.4,0.2-0.8,0.3-1.3
			c0-0.2,0.1-0.4,0.1-0.6c0.1-0.4,0.2-0.8,0.3-1.2c0-0.2,0.1-0.4,0.1-0.5c0.1-0.4,0.2-0.8,0.3-1.2c0-0.2,0.1-0.3,0.1-0.5
			c0-0.1,0.1-0.2,0.1-0.4C174.8,139.7,171.6,146.6,167.8,154.2z"/>
		<path class="st3" d="M178.6,140.4c-2.1,8.8-5,20.1-8.4,32.3v0l0,0c0.7,9.1,0.9,19.5,0.6,31C174.6,179.6,177.2,156.1,178.6,140.4z"
			/>
		<path class="st3" d="M175.6,126.7l-14.1,8.1l0,0l0,0c0.1,0.2,0.2,0.4,0.3,0.5c0.1,0.1,0.1,0.2,0.2,0.4c0.3,0.6,0.6,1.2,0.9,1.8
			c0,0.1,0.1,0.2,0.1,0.3c0.3,0.6,0.5,1.2,0.8,1.8c0,0.1,0.1,0.2,0.1,0.3c0,0.1,0,0.1,0.1,0.2C168.7,134.7,172.7,130.1,175.6,126.7z
			"/>
		<path class="st3" d="M151.3,121.7c0.1,0.1,0.2,0.2,0.3,0.3c0.6,0.6,1.1,1.1,1.6,1.7c0.1,0.1,0.2,0.2,0.2,0.3
			c0.4,0.5,0.9,0.9,1.3,1.4c6.8-1.4,12.7-2.5,17.2-3.3c-0.1,0-0.2,0-0.2,0c-0.6-0.1-1.2-0.1-1.8-0.2c-0.1,0-0.2,0-0.3,0
			c-0.7-0.1-1.3-0.1-2-0.2c-0.1,0-0.2,0-0.3,0c-0.7-0.1-1.4-0.1-2.2-0.2c-0.1,0-0.2,0-0.4,0c-0.7-0.1-1.5-0.1-2.3-0.2
			c-0.2,0-0.4,0-0.6,0c-0.8-0.1-1.6-0.1-2.4-0.2c-0.2,0-0.4,0-0.5,0c-0.8-0.1-1.7-0.1-2.6-0.2c-0.2,0-0.3,0-0.5,0
			c-0.9-0.1-1.8-0.1-2.8-0.2c-0.1,0-0.2,0-0.3,0c-1-0.1-1.9-0.1-2.9-0.2c0,0-0.1,0-0.1,0C150.3,120.7,150.8,121.2,151.3,121.7z"/>
		<path class="st3" d="M137.9,110.4c0.7,0.5,1.4,1.1,2.1,1.6c0.2,0.1,0.3,0.3,0.5,0.4c0.5,0.4,1,0.8,1.6,1.2
			c0.2,0.2,0.5,0.4,0.7,0.5c0.4,0.4,0.9,0.7,1.3,1.1c0.2,0.2,0.4,0.4,0.7,0.6c0.4,0.4,0.9,0.7,1.3,1.1c0.1,0.1,0.3,0.2,0.4,0.3h0
			l0,0c8.5,0.5,16,1.2,21.9,1.7c-0.1,0-0.2-0.1-0.3-0.1c-0.2-0.1-0.5-0.1-0.7-0.2c-0.3-0.1-0.6-0.2-0.8-0.3
			c-0.2-0.1-0.5-0.1-0.7-0.2c-0.3-0.1-0.6-0.2-1-0.3c-0.2-0.1-0.5-0.1-0.7-0.2c-0.4-0.1-0.7-0.2-1.1-0.3c-0.2-0.1-0.5-0.1-0.7-0.2
			c-0.4-0.1-0.8-0.2-1.2-0.3c-0.2-0.1-0.4-0.1-0.7-0.2c-0.4-0.1-0.9-0.3-1.3-0.4c-0.2-0.1-0.4-0.1-0.6-0.2c-0.6-0.2-1.2-0.3-1.8-0.5
			c-0.1,0-0.1,0-0.2-0.1c-0.7-0.2-1.4-0.4-2.1-0.6c0,0,0,0,0,0c-0.7-0.2-1.4-0.4-2.1-0.6c-0.1,0-0.2-0.1-0.3-0.1
			c-0.6-0.2-1.2-0.3-1.8-0.5c-0.2-0.1-0.4-0.1-0.6-0.2c-0.5-0.1-1.1-0.3-1.6-0.4c-0.2-0.1-0.5-0.1-0.7-0.2c-0.5-0.1-1-0.3-1.6-0.4
			c-0.2-0.1-0.5-0.1-0.7-0.2c-0.5-0.1-1-0.3-1.6-0.4c-0.3-0.1-0.5-0.1-0.8-0.2c-0.5-0.1-1.1-0.3-1.6-0.4c-0.3-0.1-0.5-0.1-0.8-0.2
			c-0.6-0.1-1.1-0.3-1.7-0.4c-0.2-0.1-0.5-0.1-0.7-0.2c-0.1,0-0.3-0.1-0.4-0.1C137.8,110.4,137.9,110.4,137.9,110.4z"/>
		<path class="st3" d="M131.7,106L131.7,106L131.7,106c12.3,3.1,23.5,6.3,32.2,8.8c-14.3-6.6-35.9-16.1-58.8-24.9
			C115.2,95.5,124.1,100.9,131.7,106z"/>
		<path class="st3" d="M160.2,132.5l14.1-8.1c-4.4,0.8-10.4,1.9-17.5,3.3c0,0,0.1,0.1,0.1,0.1c0.1,0.1,0.1,0.2,0.2,0.3
			c0.4,0.5,0.8,1,1.2,1.5c0.1,0.1,0.1,0.2,0.2,0.3c0.4,0.6,0.8,1.1,1.1,1.6c0.1,0.1,0.2,0.2,0.2,0.4
			C159.9,132.1,160.1,132.3,160.2,132.5z"/>
		<path class="st3" d="M209.5,124c0.1-0.1,0.2-0.2,0.2-0.3c0.5-0.6,1.1-1.1,1.6-1.7c0.1-0.1,0.2-0.2,0.3-0.3c0.5-0.5,1-1,1.6-1.5
			c0,0-0.1,0-0.1,0c-1,0.1-2,0.1-2.9,0.2c-0.1,0-0.2,0-0.3,0c-0.9,0.1-1.9,0.1-2.8,0.2c-0.2,0-0.3,0-0.5,0c-0.9,0.1-1.7,0.1-2.6,0.2
			c-0.2,0-0.4,0-0.5,0c-0.8,0.1-1.6,0.1-2.4,0.2c-0.2,0-0.4,0-0.6,0c-0.8,0.1-1.5,0.1-2.3,0.2c-0.1,0-0.2,0-0.4,0
			c-0.8,0.1-1.5,0.1-2.2,0.2c-0.1,0-0.2,0-0.3,0c-0.7,0.1-1.4,0.1-2,0.2c-0.1,0-0.2,0-0.3,0c-0.6,0.1-1.3,0.1-1.8,0.2
			c-0.1,0-0.2,0-0.2,0c4.5,0.8,10.4,1.9,17.2,3.3C208.7,124.9,209.1,124.4,209.5,124z"/>
		<path class="st3" d="M216.5,117.3L216.5,117.3L216.5,117.3c0.1-0.1,0.3-0.2,0.4-0.3c0.4-0.4,0.9-0.7,1.3-1.1
			c0.2-0.2,0.4-0.4,0.7-0.6c0.4-0.4,0.9-0.7,1.3-1.1c0.2-0.2,0.5-0.4,0.7-0.5c0.5-0.4,1-0.8,1.6-1.2c0.2-0.1,0.3-0.3,0.5-0.4
			c0.7-0.5,1.4-1.1,2.1-1.6c0,0,0.1-0.1,0.1-0.1c-0.1,0-0.3,0.1-0.4,0.1c-0.2,0.1-0.5,0.1-0.7,0.2c-0.6,0.1-1.1,0.3-1.7,0.4
			c-0.3,0.1-0.5,0.1-0.7,0.2c-0.5,0.1-1.1,0.3-1.6,0.4c-0.3,0.1-0.5,0.1-0.8,0.2c-0.5,0.1-1,0.3-1.6,0.4c-0.2,0.1-0.5,0.1-0.7,0.2
			c-0.5,0.1-1,0.3-1.5,0.4c-0.2,0.1-0.5,0.1-0.7,0.2c-0.5,0.1-1,0.3-1.5,0.4c-0.2,0.1-0.5,0.1-0.7,0.2c-0.5,0.2-1.1,0.3-1.6,0.5
			c-0.2,0-0.3,0.1-0.5,0.1c-0.7,0.2-1.3,0.4-1.9,0.5c-0.1,0-0.1,0-0.2,0c-0.7,0.2-1.4,0.4-2.1,0.6c-0.1,0-0.1,0-0.2,0.1
			c-0.6,0.2-1.2,0.3-1.7,0.5c-0.2,0.1-0.4,0.1-0.6,0.2c-0.4,0.1-0.8,0.2-1.2,0.4c-0.3,0.1-0.5,0.1-0.7,0.2c-0.4,0.1-0.7,0.2-1.1,0.3
			c-0.2,0.1-0.5,0.1-0.7,0.2c-0.4,0.1-0.7,0.2-1,0.3c-0.2,0.1-0.5,0.1-0.7,0.2c-0.3,0.1-0.6,0.2-1,0.3c-0.3,0.1-0.5,0.2-0.7,0.2
			c-0.3,0.1-0.6,0.2-0.9,0.3c-0.2,0.1-0.5,0.1-0.7,0.2c-0.1,0-0.2,0.1-0.3,0.1C200.4,118.5,208,117.9,216.5,117.3z"/>
		<path class="st3" d="M199.1,114.8c8.7-2.6,19.9-5.7,32.2-8.8h0h0c7.6-5.2,16.5-10.5,26.6-16C235.1,98.7,213.4,108.3,199.1,114.8z"
			/>
		<path class="st3" d="M188.8,124.3l14.1,8.1l0,0l0,0c0.1-0.2,0.2-0.3,0.3-0.5c0.1-0.1,0.2-0.2,0.2-0.4c0.4-0.5,0.7-1.1,1.1-1.6
			c0.1-0.1,0.1-0.2,0.2-0.3c0.4-0.5,0.8-1,1.2-1.5c0.1-0.1,0.1-0.2,0.2-0.3c0,0,0.1-0.1,0.1-0.1
			C199.2,126.3,193.1,125.1,188.8,124.3z"/>
		<path class="st3" d="M196.6,147.9c0-0.2,0.1-0.3,0.1-0.4c0.2-0.8,0.4-1.5,0.6-2.3c0-0.1,0.1-0.2,0.1-0.3c0.2-0.6,0.4-1.2,0.6-1.8
			l0,0l0,0c-4.6-5.2-8.5-9.7-11.5-13.2c0,0,0,0,0,0c0.3,0.6,0.6,1.3,0.9,1.9c0,0,0,0,0,0.1c0.6,1.3,1.3,2.8,2,4.3
			c0,0.1,0.1,0.1,0.1,0.2c0.3,0.7,0.7,1.4,1,2.2c0.1,0.1,0.1,0.2,0.2,0.4c0.3,0.7,0.7,1.5,1.1,2.2c0.1,0.2,0.1,0.3,0.2,0.5
			c0.4,0.8,0.7,1.6,1.1,2.3c0.1,0.1,0.1,0.3,0.2,0.4c0.4,0.8,0.8,1.7,1.2,2.5c0.1,0.1,0.1,0.2,0.2,0.3c0.4,0.9,0.9,1.8,1.3,2.7
			c0,0,0,0,0,0.1C196.3,149.2,196.4,148.6,196.6,147.9z"/>
		<path class="st3" d="M193.5,165.1c0.1-0.9,0.2-1.8,0.3-2.7c0-0.2,0.1-0.5,0.1-0.7c0.1-0.6,0.2-1.3,0.3-1.9c0-0.3,0.1-0.6,0.1-0.9
			c0.1-0.5,0.2-1.1,0.3-1.6c0.1-0.3,0.1-0.6,0.2-0.9c0.1-0.6,0.2-1.1,0.3-1.7c0-0.2,0.1-0.4,0.1-0.5l0,0l0,0
			c-3.8-7.6-7-14.5-9.5-19.8c0,0.1,0.1,0.2,0.1,0.4c0,0.1,0.1,0.3,0.1,0.5c0.1,0.4,0.2,0.8,0.3,1.2c0,0.2,0.1,0.4,0.1,0.5
			c0.1,0.4,0.2,0.8,0.3,1.2c0,0.2,0.1,0.4,0.1,0.6c0.1,0.4,0.2,0.8,0.3,1.3c0,0.2,0.1,0.4,0.1,0.5c0.1,0.4,0.2,0.9,0.3,1.4
			c0,0.2,0.1,0.3,0.1,0.5c0.1,0.5,0.2,1,0.4,1.5c0,0.1,0.1,0.3,0.1,0.4c0.2,0.6,0.3,1.3,0.5,1.9c0,0,0,0.1,0,0.1
			c0.3,1.4,0.7,2.8,1.1,4.2c0,0.2,0.1,0.3,0.1,0.5c0.1,0.5,0.3,1.1,0.4,1.7c0.1,0.3,0.1,0.5,0.2,0.8c0.1,0.5,0.2,0.9,0.4,1.4
			c0.1,0.3,0.2,0.6,0.2,0.9c0.1,0.4,0.2,0.9,0.3,1.3c0.1,0.3,0.2,0.6,0.3,1c0.1,0.4,0.2,0.9,0.3,1.3c0.1,0.4,0.2,0.7,0.3,1.1
			c0.1,0.4,0.2,0.8,0.3,1.2c0.1,0.4,0.2,0.8,0.3,1.2c0.1,0.4,0.2,0.8,0.3,1.2c0.1,0.4,0.2,0.8,0.3,1.2c0,0.1,0,0.2,0.1,0.3
			C193.5,165.2,193.5,165.1,193.5,165.1z"/>
		<path class="st3" d="M192.8,172.7L192.8,172.7L192.8,172.7c-3.5-12.2-6.3-23.5-8.4-32.3c1.5,15.6,4,39.2,7.9,63.3
			C191.9,192.2,192.1,181.8,192.8,172.7z"/>
		<path class="st3" d="M201.5,134.8l-14.1-8.1c2.9,3.4,6.9,8.1,11.7,13.5c0-0.1,0-0.1,0.1-0.2c0-0.1,0.1-0.2,0.1-0.3
			c0.2-0.6,0.5-1.2,0.8-1.8c0-0.1,0.1-0.2,0.1-0.3c0.3-0.6,0.6-1.2,0.9-1.8c0.1-0.1,0.1-0.3,0.2-0.4
			C201.3,135.1,201.4,135,201.5,134.8z"/>
	</g>
	<g id="Triangles_5_3_">
		<path class="st4" d="M198.1,304.6c1,1.8,2,3.7,3,5.5c1,1.8,1.8,3.5,2.7,5.2c0.4,0.8,0.8,1.6,1.2,2.4c-3.1-17.4-9.2-55.4-11.8-92.9
			c-6.2-32.1-10-66.7-11.7-86.6c-1.8,19.8-5.5,54.5-11.7,86.6c-2.5,37.5-8.7,75.5-11.8,92.9c0.4-0.8,0.8-1.7,1.2-2.4
			c0.8-1.7,1.7-3.4,2.7-5.2c0.9-1.8,1.9-3.6,3-5.5l1.3-2.4c1.5-2.6,2.9-4.8,4.1-6.7l0.4-0.6c0.3-0.5,0.7-1,1-1.4
			c0.4-0.6,0.9-1.3,1.3-1.8l0.6-0.8c0.7-0.9,1.3-1.7,2-2.3c0.3-0.3,0.5-0.5,0.7-0.7c0.1-0.1,0.3-0.3,0.4-0.4
			c0.3-0.3,0.7-0.7,1.1-0.9c0,0,0.2-0.1,0.3-0.2c2.6-1.9,4.3-1.8,6.8,0c0.2,0.1,0.3,0.2,0.4,0.3c0.3,0.2,0.6,0.5,1,0.9
			c0.1,0.1,0.3,0.2,0.4,0.4c0.2,0.3,0.5,0.5,0.7,0.7c0.6,0.7,1.2,1.4,2,2.3l0.7,0.9c0.4,0.6,0.9,1.2,1.3,1.9c0.3,0.4,0.6,0.9,1,1.4
			l0.4,0.5c1.3,1.9,2.6,4.1,4.1,6.7L198.1,304.6z"/>
		<path class="st4" d="M331.6,15.8c1.1-1.8,2.2-3.6,3.3-5.3c1.1-1.7,2.1-3.4,3.2-4.9c0.5-0.7,1-1.5,1.5-2.3
			C326,14.7,296.2,39,264.9,60c-24.6,21.4-52.8,42-69.1,53.5c18.1-8.4,50-22.5,80.8-33.1C310.4,63.8,346.3,50.1,363,44
			c-0.9,0.1-1.8,0.1-2.7,0.2c-1.9,0.1-3.8,0.2-5.9,0.3c-2,0.1-4.1,0.1-6.2,0.2l-2.7,0c-3,0-5.6-0.1-7.9-0.2l-0.7,0
			c-0.6,0-1.2-0.1-1.8-0.1c-0.8-0.1-1.5-0.1-2.3-0.2l-1-0.1c-1.2-0.2-2.1-0.3-3-0.5c-0.4-0.1-0.7-0.2-1-0.2
			c-0.2-0.1-0.4-0.1-0.5-0.2c-0.5-0.1-0.9-0.3-1.4-0.5c0,0-0.2-0.1-0.3-0.1c-1.5-0.6-2.4-1.4-2.9-2.3c-0.5-0.9-0.7-2.1-0.5-3.6
			c0-0.2,0-0.4,0.1-0.5c0-0.4,0.1-0.8,0.3-1.3c0-0.2,0.1-0.3,0.1-0.5c0.1-0.3,0.2-0.6,0.3-0.9c0.3-0.9,0.6-1.8,1.1-2.9l0.4-1
			c0.3-0.7,0.6-1.4,0.9-2.1c0.2-0.5,0.5-1,0.7-1.5l0.3-0.6c1-2.1,2.3-4.3,3.8-6.9L331.6,15.8z"/>
		<path class="st4" d="M14.8,44.7c-2.1,0-4.2-0.1-6.2-0.2c-2-0.1-4-0.2-5.9-0.3c-0.9,0-1.8-0.1-2.7-0.2
			c16.7,6.1,52.6,19.7,86.3,36.3c30.9,10.6,62.8,24.7,80.8,33.1c-16.3-11.5-44.5-32-69.1-53.5C66.8,39,37,14.7,23.5,3.3
			c0.5,0.8,1,1.5,1.5,2.3c1,1.6,2.1,3.2,3.2,4.9c1.1,1.7,2.2,3.5,3.2,5.3l1.4,2.3c1.5,2.6,2.7,4.9,3.8,6.9l0.3,0.6
			c0.3,0.5,0.5,1.1,0.8,1.6c0.3,0.7,0.7,1.4,0.9,2.1l0.4,1c0.4,0.9,0.8,1.9,1,2.9c0.1,0.4,0.2,0.7,0.3,1c0.1,0.2,0.1,0.4,0.1,0.6
			c0.1,0.5,0.2,1,0.3,1.4c0,0.1,0,0.2,0.1,0.4c0.2,1.6,0,2.7-0.5,3.6c-0.5,0.9-1.5,1.6-2.9,2.3c-0.2,0.1-0.3,0.1-0.5,0.2
			c-0.3,0.1-0.8,0.3-1.2,0.4c-0.2,0.1-0.3,0.1-0.5,0.2c-0.3,0.1-0.6,0.2-1,0.2c-0.9,0.2-1.9,0.4-3,0.5L30,44.1
			c-0.7,0.1-1.5,0.2-2.3,0.2c-0.5,0.1-1.1,0.1-1.7,0.1l-0.7,0c-2.3,0.1-4.9,0.2-7.9,0.2L14.8,44.7z"/>
	</g>
</g>
</svg>
