<?xml version="1.0" encoding="utf-8"?>
<!-- Generator: Adobe Illustrator 22.1.0, SVG Export Plug-In . SVG Version: 6.00 Build 0)  -->
<svg version="1.1" id="Layer_1" xmlns="http://www.w3.org/2000/svg" xmlns:xlink="http://www.w3.org/1999/xlink" x="0px" y="0px"
	 viewBox="0 0 1920 1080" style="enable-background:new 0 0 1920 1080;" xml:space="preserve">
<style type="text/css">
	.st0{fill:url(#SVGID_1_);}
	.st1{opacity:0.5;}
	.st2{fill:none;stroke:#BEB6B3;stroke-miterlimit:10;}
</style>
<linearGradient id="SVGID_1_" gradientUnits="userSpaceOnUse" x1="9.094947e-13" y1="540" x2="1920" y2="540" gradientTransform="matrix(-1 0 0 -1 1920 1080)">
	<stop  offset="0" style="stop-color:#7B2E00"/>
	<stop  offset="0.5" style="stop-color:#541700"/>
	<stop  offset="1" style="stop-color:#220000"/>
</linearGradient>
<polygon class="st0" points="0,1080 1920,1080 1920,0 0,0 "/>
<g class="st1">
	<g>
		<path class="st2" d="M480,0c0,0-96,378-96,540s96,540,96,540"/>
		<path class="st2" d="M480,0c0,0-192,378-192,540s192,540,192,540"/>
		<path class="st2" d="M480,0c0,0-288,378-288,540s288,540,288,540"/>
		<path class="st2" d="M480,0c0,0-384,378-384,540s384,540,384,540"/>
		<path class="st2" d="M960,540c0,0-336-432-480-432S0,540,0,540"/>
		<path class="st2" d="M960,540c0,0-336-324-480-324S0,540,0,540"/>
		<path class="st2" d="M960,540c0,0-336-216-480-216S0,540,0,540"/>
		<path class="st2" d="M960,540c0,0-336-108-480-108S0,540,0,540"/>
		<polyline class="st2" points="480,0 480,540.1 480,1080 		"/>
		<path class="st2" d="M480,1080c0,0,96-378,96-540S480,0,480,0"/>
		<path class="st2" d="M480,1080c0,0,192-378,192-540S480,0,480,0"/>
		<path class="st2" d="M480,1080c0,0,288-378,288-540S480,0,480,0"/>
		<path class="st2" d="M480,1080c0,0,384-378,384-540S480,0,480,0"/>
		<polyline class="st2" points="960,540 480,540 0,540 		"/>
		<path class="st2" d="M0,540c0,0,336,432,480,432s480-432,480-432"/>
		<path class="st2" d="M0,540c0,0,336,324,480,324s480-324,480-324"/>
		<path class="st2" d="M0,540c0,0,336,216,480,216s480-216,480-216"/>
		<path class="st2" d="M0,540c0,0,336,108,480,108s480-108,480-108"/>
	</g>
	<g>
		<path class="st2" d="M1920,540c0,0-96,378-96,540"/>
		<path class="st2" d="M1920,540c0,0-192,378-192,540"/>
		<path class="st2" d="M1920,540c0,0-288,378-288,540"/>
		<path class="st2" d="M1920,540c0,0-384,378-384,540"/>
		<path class="st2" d="M1920,648c-144,0-480,432-480,432"/>
		<path class="st2" d="M1920,756c-144,0-480,324-480,324"/>
		<path class="st2" d="M1920,864c-144,0-480,216-480,216"/>
		<path class="st2" d="M1920,972c-144,0-480,108-480,108"/>
	</g>
	<g>
		<path class="st2" d="M1920,540c0,0-96-378-96-540"/>
		<path class="st2" d="M1920,540c0,0-192-378-192-540"/>
		<path class="st2" d="M1920,540c0,0-288-378-288-540"/>
		<path class="st2" d="M1920,540c0,0-384-378-384-540"/>
		<path class="st2" d="M1920,432c-144,0-480-432-480-432"/>
		<path class="st2" d="M1920,324c-144,0-480-324-480-324"/>
		<path class="st2" d="M1920,216c-144,0-480-216-480-216"/>
		<path class="st2" d="M1920,108c-144,0-480-108-480-108"/>
	</g>
	<g>
		<path class="st2" d="M0,540c0,0,96-378,96-540"/>
		<path class="st2" d="M0,540c0,0,192-378,192-540"/>
		<path class="st2" d="M0,540c0,0,288-378,288-540"/>
		<path class="st2" d="M0,540c0,0,384-378,384-540"/>
		<path class="st2" d="M0,432C144,432,480,0,480,0"/>
		<path class="st2" d="M0,324C144,324,480,0,480,0"/>
		<path class="st2" d="M0,216C144,216,480,0,480,0"/>
		<path class="st2" d="M0,108C144,108,480,0,480,0"/>
	</g>
	<g>
		<path class="st2" d="M0,540c0,0,96,378,96,540"/>
		<path class="st2" d="M0,540c0,0,192,378,192,540"/>
		<path class="st2" d="M0,540c0,0,288,378,288,540"/>
		<path class="st2" d="M0,540c0,0,384,378,384,540"/>
		<path class="st2" d="M0,648c144,0,480,432,480,432"/>
		<path class="st2" d="M0,756c144,0,480,324,480,324"/>
		<path class="st2" d="M0,864c144,0,480,216,480,216"/>
		<path class="st2" d="M0,972c144,0,480,108,480,108"/>
	</g>
	<g>
		<path class="st2" d="M960,540c0,0,96-378,96-540"/>
		<path class="st2" d="M960,540c0,0,192-378,192-540"/>
		<path class="st2" d="M960,540c0,0,288-378,288-540"/>
		<path class="st2" d="M960,540c0,0,384-378,384-540"/>
		<path class="st2" d="M480,0c0,0,336,432,480,432S1440,0,1440,0"/>
		<path class="st2" d="M480,0c0,0,336,324,480,324S1440,0,1440,0"/>
		<path class="st2" d="M480,0c0,0,336,216,480,216S1440,0,1440,0"/>
		<path class="st2" d="M480,0c0,0,336,108,480,108S1440,0,1440,0"/>
		<line class="st2" x1="960" y1="540" x2="960" y2="0"/>
		<path class="st2" d="M864,0c0,162,96,540,96,540"/>
		<path class="st2" d="M768,0c0,162,192,540,192,540"/>
		<path class="st2" d="M672,0c0,162,288,540,288,540"/>
		<path class="st2" d="M576,0c0,162,384,540,384,540"/>
	</g>
	<g>
		<path class="st2" d="M960,540c0,0-96,378-96,540"/>
		<path class="st2" d="M960,540c0,0-192,378-192,540"/>
		<path class="st2" d="M960,540c0,0-288,378-288,540"/>
		<path class="st2" d="M960,540c0,0-384,378-384,540"/>
		<path class="st2" d="M1440,1080c0,0-336-432-480-432s-480,432-480,432"/>
		<path class="st2" d="M1440,1080c0,0-336-324-480-324s-480,324-480,324"/>
		<path class="st2" d="M1440,1080c0,0-336-216-480-216s-480,216-480,216"/>
		<path class="st2" d="M1440,1080c0,0-336-108-480-108s-480,108-480,108"/>
		<line class="st2" x1="960" y1="540" x2="960" y2="1080"/>
		<path class="st2" d="M1056,1080c0-162-96-540-96-540"/>
		<path class="st2" d="M1152,1080c0-162-192-540-192-540"/>
		<path class="st2" d="M1248,1080c0-162-288-540-288-540"/>
		<path class="st2" d="M1344,1080c0-162-384-540-384-540"/>
	</g>
	<g>
		<path class="st2" d="M1440,0c0,0-96,378-96,540s96,540,96,540"/>
		<path class="st2" d="M1440,0c0,0-192,378-192,540s192,540,192,540"/>
		<path class="st2" d="M1440,0c0,0-288,378-288,540s288,540,288,540"/>
		<path class="st2" d="M1440,0c0,0-384,378-384,540s384,540,384,540"/>
		<path class="st2" d="M1920,540c0,0-336-432-480-432S960,540,960,540"/>
		<path class="st2" d="M1920,540c0,0-336-324-480-324S960,540,960,540"/>
		<path class="st2" d="M1920,540c0,0-336-216-480-216S960,540,960,540"/>
		<path class="st2" d="M1920,540c0,0-336-108-480-108S960,540,960,540"/>
		<polyline class="st2" points="1440,0 1440,540.1 1440,1080 		"/>
		<path class="st2" d="M1440,1080c0,0,96-378,96-540S1440,0,1440,0"/>
		<path class="st2" d="M1440,1080c0,0,192-378,192-540S1440,0,1440,0"/>
		<path class="st2" d="M1440,1080c0,0,288-378,288-540S1440,0,1440,0"/>
		<path class="st2" d="M1440,1080c0,0,384-378,384-540S1440,0,1440,0"/>
		<polyline class="st2" points="1920,540 1440,540 960,540 		"/>
		<path class="st2" d="M960,540c0,0,336,432,480,432s480-432,480-432"/>
		<path class="st2" d="M960,540c0,0,336,324,480,324s480-324,480-324"/>
		<path class="st2" d="M960,540c0,0,336,216,480,216s480-216,480-216"/>
		<path class="st2" d="M960,540c0,0,336,108,480,108s480-108,480-108"/>
	</g>
</g>
</svg>
