<?xml version="1.0" encoding="utf-8"?>
<!-- Generator: Adobe Illustrator 22.1.0, SVG Export Plug-In . SVG Version: 6.00 Build 0)  -->
<svg version="1.1" id="Layer_1" xmlns="http://www.w3.org/2000/svg" xmlns:xlink="http://www.w3.org/1999/xlink" x="0px" y="0px"
	 viewBox="0 0 1921 1081" style="enable-background:new 0 0 1921 1081;" xml:space="preserve">
<style type="text/css">
	.st0{fill:none;stroke:#BEB6B3;stroke-miterlimit:10;}
</style>
<g>
	<g>
		<path class="st0" d="M480.5,0.5c0,0-96,378-96,540s96,540,96,540"/>
		<path class="st0" d="M480.5,0.5c0,0-192,378-192,540s192,540,192,540"/>
		<path class="st0" d="M480.5,0.5c0,0-288,378-288,540s288,540,288,540"/>
		<path class="st0" d="M480.5,0.5c0,0-384,378-384,540s384,540,384,540"/>
		<path class="st0" d="M960.5,540.5c0,0-336-432-480-432s-480,432-480,432"/>
		<path class="st0" d="M960.5,540.5c0,0-336-324-480-324s-480,324-480,324"/>
		<path class="st0" d="M960.5,540.5c0,0-336-216-480-216s-480,216-480,216"/>
		<path class="st0" d="M960.5,540.5c0,0-336-108-480-108s-480,108-480,108"/>
		<polyline class="st0" points="480.5,0.5 480.5,540.6 480.5,1080.5 		"/>
		<path class="st0" d="M480.5,1080.5c0,0,96-378,96-540s-96-540-96-540"/>
		<path class="st0" d="M480.5,1080.5c0,0,192-378,192-540s-192-540-192-540"/>
		<path class="st0" d="M480.5,1080.5c0,0,288-378,288-540s-288-540-288-540"/>
		<path class="st0" d="M480.5,1080.5c0,0,384-378,384-540s-384-540-384-540"/>
		<polyline class="st0" points="960.5,540.5 480.5,540.5 0.5,540.5 		"/>
		<path class="st0" d="M0.5,540.5c0,0,336,432,480,432s480-432,480-432"/>
		<path class="st0" d="M0.5,540.5c0,0,336,324,480,324s480-324,480-324"/>
		<path class="st0" d="M0.5,540.5c0,0,336,216,480,216s480-216,480-216"/>
		<path class="st0" d="M0.5,540.5c0,0,336,108,480,108s480-108,480-108"/>
	</g>
	<g>
		<path class="st0" d="M1920.5,540.5c0,0-96,378-96,540"/>
		<path class="st0" d="M1920.5,540.5c0,0-192,378-192,540"/>
		<path class="st0" d="M1920.5,540.5c0,0-288,378-288,540"/>
		<path class="st0" d="M1920.5,540.5c0,0-384,378-384,540"/>
		<path class="st0" d="M1920.5,648.5c-144,0-480,432-480,432"/>
		<path class="st0" d="M1920.5,756.5c-144,0-480,324-480,324"/>
		<path class="st0" d="M1920.5,864.5c-144,0-480,216-480,216"/>
		<path class="st0" d="M1920.5,972.5c-144,0-480,108-480,108"/>
	</g>
	<g>
		<path class="st0" d="M1920.5,540.5c0,0-96-378-96-540"/>
		<path class="st0" d="M1920.5,540.5c0,0-192-378-192-540"/>
		<path class="st0" d="M1920.5,540.5c0,0-288-378-288-540"/>
		<path class="st0" d="M1920.5,540.5c0,0-384-378-384-540"/>
		<path class="st0" d="M1920.5,432.5c-144,0-480-432-480-432"/>
		<path class="st0" d="M1920.5,324.5c-144,0-480-324-480-324"/>
		<path class="st0" d="M1920.5,216.5c-144,0-480-216-480-216"/>
		<path class="st0" d="M1920.5,108.5c-144,0-480-108-480-108"/>
	</g>
	<g>
		<path class="st0" d="M0.5,540.5c0,0,96-378,96-540"/>
		<path class="st0" d="M0.5,540.5c0,0,192-378,192-540"/>
		<path class="st0" d="M0.5,540.5c0,0,288-378,288-540"/>
		<path class="st0" d="M0.5,540.5c0,0,384-378,384-540"/>
		<path class="st0" d="M0.5,432.5c144,0,480-432,480-432"/>
		<path class="st0" d="M0.5,324.5c144,0,480-324,480-324"/>
		<path class="st0" d="M0.5,216.5c144,0,480-216,480-216"/>
		<path class="st0" d="M0.5,108.5c144,0,480-108,480-108"/>
	</g>
	<g>
		<path class="st0" d="M0.5,540.5c0,0,96,378,96,540"/>
		<path class="st0" d="M0.5,540.5c0,0,192,378,192,540"/>
		<path class="st0" d="M0.5,540.5c0,0,288,378,288,540"/>
		<path class="st0" d="M0.5,540.5c0,0,384,378,384,540"/>
		<path class="st0" d="M0.5,648.5c144,0,480,432,480,432"/>
		<path class="st0" d="M0.5,756.5c144,0,480,324,480,324"/>
		<path class="st0" d="M0.5,864.5c144,0,480,216,480,216"/>
		<path class="st0" d="M0.5,972.5c144,0,480,108,480,108"/>
	</g>
	<g>
		<path class="st0" d="M960.5,540.5c0,0,96-378,96-540"/>
		<path class="st0" d="M960.5,540.5c0,0,192-378,192-540"/>
		<path class="st0" d="M960.5,540.5c0,0,288-378,288-540"/>
		<path class="st0" d="M960.5,540.5c0,0,384-378,384-540"/>
		<path class="st0" d="M480.5,0.5c0,0,336,432,480,432s480-432,480-432"/>
		<path class="st0" d="M480.5,0.5c0,0,336,324,480,324s480-324,480-324"/>
		<path class="st0" d="M480.5,0.5c0,0,336,216,480,216s480-216,480-216"/>
		<path class="st0" d="M480.5,0.5c0,0,336,108,480,108s480-108,480-108"/>
		<line class="st0" x1="960.5" y1="540.5" x2="960.5" y2="0.5"/>
		<path class="st0" d="M864.5,0.5c0,162,96,540,96,540"/>
		<path class="st0" d="M768.5,0.5c0,162,192,540,192,540"/>
		<path class="st0" d="M672.5,0.5c0,162,288,540,288,540"/>
		<path class="st0" d="M576.5,0.5c0,162,384,540,384,540"/>
	</g>
	<g>
		<path class="st0" d="M960.5,540.5c0,0-96,378-96,540"/>
		<path class="st0" d="M960.5,540.5c0,0-192,378-192,540"/>
		<path class="st0" d="M960.5,540.5c0,0-288,378-288,540"/>
		<path class="st0" d="M960.5,540.5c0,0-384,378-384,540"/>
		<path class="st0" d="M1440.5,1080.5c0,0-336-432-480-432s-480,432-480,432"/>
		<path class="st0" d="M1440.5,1080.5c0,0-336-324-480-324s-480,324-480,324"/>
		<path class="st0" d="M1440.5,1080.5c0,0-336-216-480-216s-480,216-480,216"/>
		<path class="st0" d="M1440.5,1080.5c0,0-336-108-480-108s-480,108-480,108"/>
		<line class="st0" x1="960.5" y1="540.5" x2="960.5" y2="1080.5"/>
		<path class="st0" d="M1056.5,1080.5c0-162-96-540-96-540"/>
		<path class="st0" d="M1152.5,1080.5c0-162-192-540-192-540"/>
		<path class="st0" d="M1248.5,1080.5c0-162-288-540-288-540"/>
		<path class="st0" d="M1344.5,1080.5c0-162-384-540-384-540"/>
	</g>
	<g>
		<path class="st0" d="M1440.5,0.5c0,0-96,378-96,540s96,540,96,540"/>
		<path class="st0" d="M1440.5,0.5c0,0-192,378-192,540s192,540,192,540"/>
		<path class="st0" d="M1440.5,0.5c0,0-288,378-288,540s288,540,288,540"/>
		<path class="st0" d="M1440.5,0.5c0,0-384,378-384,540s384,540,384,540"/>
		<path class="st0" d="M1920.5,540.5c0,0-336-432-480-432s-480,432-480,432"/>
		<path class="st0" d="M1920.5,540.5c0,0-336-324-480-324s-480,324-480,324"/>
		<path class="st0" d="M1920.5,540.5c0,0-336-216-480-216s-480,216-480,216"/>
		<path class="st0" d="M1920.5,540.5c0,0-336-108-480-108s-480,108-480,108"/>
		<polyline class="st0" points="1440.5,0.5 1440.5,540.6 1440.5,1080.5 		"/>
		<path class="st0" d="M1440.5,1080.5c0,0,96-378,96-540s-96-540-96-540"/>
		<path class="st0" d="M1440.5,1080.5c0,0,192-378,192-540s-192-540-192-540"/>
		<path class="st0" d="M1440.5,1080.5c0,0,288-378,288-540s-288-540-288-540"/>
		<path class="st0" d="M1440.5,1080.5c0,0,384-378,384-540s-384-540-384-540"/>
		<polyline class="st0" points="1920.5,540.5 1440.5,540.5 960.5,540.5 		"/>
		<path class="st0" d="M960.5,540.5c0,0,336,432,480,432s480-432,480-432"/>
		<path class="st0" d="M960.5,540.5c0,0,336,324,480,324s480-324,480-324"/>
		<path class="st0" d="M960.5,540.5c0,0,336,216,480,216s480-216,480-216"/>
		<path class="st0" d="M960.5,540.5c0,0,336,108,480,108s480-108,480-108"/>
	</g>
</g>
</svg>
